; Drill file
; Format: 3.3 (000.000)
M48
METRIC
T01C0.4
T02C0.5
T03C0.72
T04C0.8
T05C0.81
T06C0.9
T07C1.0
T08C1.2
T09C1.5
T10C2.2
T11C2.75
T12C3.0
T13C4.0
%
G05
G90
T01
X27940Y8890
X19680Y24760
X40640Y31120
X43820Y41910
X40000Y53340
X47620Y55240
X49530Y55880
X51440Y55880
X51440Y57780
X55240Y59060
X53980Y61600
X58420Y59690
X55240Y66680
X57150Y71910
X60960Y71280
X63500Y71910
X55130Y79530
X55130Y83340
X55880Y88420
X58420Y88420
X58420Y90960
X56670Y96040
X63820Y105010
X69370Y106200
X69370Y108270
X70010Y115250
X71760Y124780
X82550Y127320
X85410Y125290
X87790Y124140
X83980Y121760
X82710Y120330
X88900Y117790
X90330Y108740
X97790Y111280
X108110Y104930
X108110Y101120
X113660Y92080
X113190Y89690
X111120Y90170
X107320Y90170
X99700Y85720
X97790Y81920
X89540Y83180
X92080Y75410
X87000Y64770
X82550Y56520
X92080Y55240
X94620Y55240
X97790Y55880
X96520Y58420
X94650Y58900
X103820Y56200
X116840Y69850
X134620Y63180
X138430Y68580
X140970Y77310
X140970Y80640
X141600Y83030
X137800Y86840
X131440Y94620
X133350Y97160
X130180Y100960
X127640Y102240
X128900Y104780
X130330Y107470
X132080Y110010
X131440Y112550
X135260Y117630
X132080Y118900
X135260Y121440
X139860Y116360
X140340Y113820
X149860Y118900
X151290Y114460
X151130Y112400
X154300Y108580
X157480Y103500
X157000Y98420
X157000Y95880
X154300Y95880
X154300Y93340
X150500Y94620
X148590Y90800
X152400Y88260
X154940Y84300
X156210Y76680
X152400Y76680
X148590Y79220
X164460Y75410
X164460Y72870
X164620Y83030
X169190Y85570
X169580Y88190
X162560Y90010
X161920Y98420
X147960Y104780
X146050Y103500
X147480Y123350
X148590Y127160
X150650Y127160
X152400Y127160
X155580Y127160
X150020Y131600
X157000Y135410
X149220Y141130
X149220Y145730
X148750Y148110
X143670Y149380
X143670Y144300
X141130Y144300
X137320Y154620
X141760Y155890
X157640Y151920
X163310Y144300
X172240Y146370
X190660Y144300
X190500Y142400
X190500Y139860
X188750Y136680
X187320Y133980
X184150Y130330
X190500Y130180
X194940Y132720
X198760Y132720
X208990Y133980
X195740Y121920
X199390Y113030
X201930Y113510
X196850Y111600
X186060Y90650
X177240Y88110
X180340Y65090
X177160Y63820
X186060Y54290
X187960Y54290
X189230Y58740
X191770Y58740
X193680Y58740
X201930Y64450
X203200Y79060
X199390Y46670
X202560Y41280
X201930Y27940
X180980Y36200
X157480Y31430
X152400Y30160
X143510Y22220
X129540Y21270
X132080Y37150
X134620Y40320
X142240Y37780
X145420Y53020
X139060Y56200
X137800Y54290
X144780Y61910
X124460Y37150
X123820Y88260
X128900Y92080
X125730Y122710
X125730Y124620
X127160Y128430
X120170Y128590
X117480Y129220
X117630Y134140
X120170Y138110
X117630Y147000
X113820Y151610
X107470Y150180
X104300Y157320
X108740Y158590
X106200Y163040
X106200Y165580
X111280Y164780
X119540Y157160
X125250Y162240
X130330Y182720
X132870Y183360
X135410Y183990
X143030Y183360
X144300Y178280
X141760Y177010
X150650Y179550
X153830Y183990
X155730Y182090
X157640Y181450
X155730Y176370
X165890Y177640
X167640Y177640
X169700Y177640
X174780Y178280
X173510Y181450
X177960Y182090
X180500Y181290
X183040Y181290
X185580Y181930
X188120Y182560
X193830Y182560
X195100Y190820
X187480Y192720
X187480Y188440
X181130Y190340
X176690Y190180
X167000Y189550
X167160Y192880
X161450Y187800
X159540Y187800
X157640Y187800
X148110Y185900
X150020Y195420
X149380Y199870
X146840Y200500
X148110Y203840
X134300Y200660
X125250Y200020
X122710Y200660
X118900Y200020
X118900Y187800
X116360Y184150
X101760Y177800
X98580Y191140
X102390Y200660
X87150Y194790
X83980Y192400
X78260Y159860
X71910Y158590
X82070Y150500
X84610Y150970
X87150Y151610
X97310Y154780
X92870Y138110
X85880Y133030
X74450Y140810
X70640Y138110
X68740Y138110
X63660Y138750
X58580Y138270
X52700Y142080
X50960Y134300
X44610Y140180
X41430Y140810
X38890Y142720
X35080Y137480
X32070Y137000
X32540Y134460
X30000Y135260
X25560Y132560
X26190Y130020
X26190Y127480
X26990Y124940
X23650Y125570
X22380Y120490
X25560Y118590
X24290Y117160
X22380Y114620
X21110Y113510
X20480Y110170
X19840Y107630
X20960Y103820
X21110Y101280
X24760Y102550
X26190Y105090
X23650Y106360
X28730Y112080
X28100Y116050
X27460Y120490
X34450Y115250
X37620Y122870
X44610Y127480
X45240Y109380
X39530Y107470
X35080Y107000
X41280Y102550
X40640Y100010
X41430Y96200
X39370Y93500
X39370Y89850
X41280Y84770
X42540Y79530
X50160Y71120
X49530Y69220
X39370Y67310
X34050Y67940
X32380Y69220
X30480Y62860
X32380Y60320
X27300Y56520
X26040Y65400
X19680Y63500
X30640Y80800
X17300Y89060
X19210Y96840
X21750Y96840
X15400Y96840
X16030Y123030
X21270Y143510
X17940Y148430
X22380Y149700
X23650Y151130
X24920Y152400
X26190Y151130
X27460Y152400
X28730Y153670
X30640Y153670
X32540Y153670
X28890Y161290
X24290Y161290
X20480Y162400
X18570Y163830
X16670Y168910
X30160Y186690
X22380Y196370
X23810Y197640
X23810Y199550
X24450Y201450
X26350Y202090
X22540Y203360
X21910Y207800
X20000Y195580
X56670Y171450
X50320Y161290
X56670Y157960
X49050Y149860
X55240Y108900
X64140Y87150
X68580Y88420
X71760Y87150
X73180Y93500
X81440Y87630
X90800Y92080
X96520Y93340
X81520Y107470
X107470Y122710
X109380Y121440
X110010Y140020
X107470Y140020
X141130Y131600
X170180Y114300
X187480Y158270
X188750Y160810
X195100Y158910
X199390Y171370
X208920Y157000
X174780Y173040
X184940Y199230
X190020Y199870
X193200Y198440
X196370Y201140
X197640Y198600
X200020Y198600
X204630Y204950
X78100Y76200
X67940Y32860
X70480Y32070
X180980Y8890
T02
X41910Y22860
X50800Y60320
X50800Y63500
X78260Y169540
T03
X174620Y72870
T04
X15080Y11750
X15080Y14450
X21590Y14450
X21590Y11750
X34130Y11750
X34130Y14450
X40640Y14450
X40640Y11750
X43820Y25880
X46360Y25880
X48900Y25880
X51440Y25880
X51440Y33500
X48900Y33500
X46360Y33500
X43820Y33500
X38100Y32940
X38100Y36120
X37430Y39930
X34890Y39930
X32350Y39930
X29810Y39930
X27940Y36120
X27940Y32940
X27940Y29690
X38100Y29690
X39970Y39930
X42510Y39930
X45050Y39930
X47590Y39930
X50130Y39930
X52670Y39930
X52670Y47550
X50130Y47550
X47590Y47550
X45050Y47550
X42510Y47550
X39970Y47550
X37430Y47550
X34890Y47550
X32350Y47550
X29810Y47550
X27230Y53340
X19680Y52070
X16510Y45080
X6510Y45080
X37390Y53340
X36260Y59110
X36260Y61650
X36260Y64190
X36260Y66730
X34920Y71910
X32380Y77030
X32380Y79570
X32380Y82110
X32380Y84650
X32380Y87190
X32380Y89730
X32380Y92270
X32380Y94810
X32380Y97350
X32380Y99890
X32380Y102430
X32380Y104970
X32380Y107510
X32380Y110050
X32380Y112590
X32380Y115130
X32380Y117670
X32380Y120210
X32380Y122750
X32380Y125290
X32460Y129940
X45160Y129940
X48970Y129780
X47620Y125290
X47620Y122750
X47620Y120210
X47620Y117670
X47620Y115130
X47620Y112590
X47620Y110050
X47620Y107510
X47620Y104970
X47620Y102430
X47620Y99890
X47620Y97350
X47620Y94810
X47620Y92270
X47620Y89730
X47620Y87190
X47620Y84650
X47620Y82110
X47620Y79570
X47620Y77030
X45080Y71910
X43880Y66730
X43880Y64190
X43880Y61650
X43880Y59110
X58500Y69290
X67940Y66040
X67940Y63500
X72390Y66680
X68660Y69290
X60400Y79570
X60400Y82110
X60400Y84650
X60400Y87190
X60400Y89730
X60400Y92270
X60400Y94810
X60400Y97350
X60400Y99890
X61750Y105090
X66820Y105030
X66820Y107570
X66820Y110110
X66820Y112650
X66820Y115190
X66820Y117730
X66820Y120270
X66820Y122810
X66820Y125350
X62940Y129780
X59130Y129780
X60420Y125480
X52800Y125480
X46510Y136290
X59210Y136290
X63660Y136290
X64290Y144620
X61750Y144620
X59210Y144620
X56670Y144620
X66830Y144620
X69370Y144620
X71910Y144620
X74450Y144620
X76990Y144620
X79530Y144620
X82070Y144620
X84610Y144620
X87150Y144620
X89690Y144620
X92230Y144620
X94770Y144620
X97310Y144620
X99850Y144620
X102390Y144620
X104930Y144620
X107470Y144620
X110010Y144620
X112550Y144620
X115090Y144620
X117630Y144620
X120170Y144620
X122710Y144620
X125250Y144620
X127790Y144620
X130330Y144620
X132870Y144620
X135410Y144620
X140490Y139940
X140490Y136050
X145490Y133510
X145490Y129620
X144220Y125170
X144220Y122630
X144220Y120090
X144220Y117550
X144220Y115010
X144220Y112470
X144220Y109930
X144220Y107390
X144220Y104850
X144220Y102310
X144220Y99770
X144220Y97230
X144220Y94690
X144220Y92150
X144220Y89610
X144220Y87070
X144220Y84530
X144220Y81990
X144220Y79450
X144220Y76910
X134060Y77470
X134060Y81280
X135260Y85090
X137910Y92190
X137910Y94730
X137910Y97270
X137910Y99810
X137910Y102350
X137910Y104890
X137910Y107430
X137910Y109970
X137910Y112510
X137910Y115050
X137910Y117590
X137910Y120130
X137910Y122670
X137910Y125210
X134700Y129780
X127790Y136050
X125250Y136050
X125250Y139940
X127790Y139940
X124540Y129780
X122670Y125210
X122670Y122670
X122670Y120130
X122670Y117590
X122670Y115050
X122670Y112510
X122670Y109970
X122670Y107430
X122670Y104890
X122670Y102350
X122670Y99810
X122670Y97270
X122670Y94730
X122670Y92190
X116320Y92230
X116320Y94770
X116320Y97310
X116320Y99850
X116320Y102390
X116320Y104930
X116320Y107470
X116320Y110010
X116320Y112550
X116320Y115090
X116320Y117630
X116320Y120170
X116320Y122710
X116320Y125250
X113660Y129780
X112550Y136050
X112550Y139940
X107470Y136290
X103500Y129780
X99770Y129780
X101080Y125250
X101080Y122710
X101080Y120170
X101080Y117630
X101080Y115090
X101080Y112550
X101080Y110010
X101080Y107470
X101080Y104930
X101080Y102390
X101080Y99850
X101080Y97310
X101080Y94770
X101080Y92230
X94650Y92270
X94650Y94810
X94650Y97350
X94650Y99890
X94650Y102430
X94650Y104970
X94650Y107510
X94650Y110050
X94650Y112590
X94650Y115130
X94650Y117670
X94650Y120210
X94650Y122750
X94650Y125290
X89610Y129780
X90960Y131760
X90880Y136290
X94770Y136290
X85800Y129780
X79410Y125290
X79410Y122750
X79410Y120210
X79410Y117670
X79410Y115130
X79410Y112590
X79410Y110050
X79410Y107510
X79410Y104970
X79410Y102430
X79410Y99890
X79410Y97350
X79410Y94810
X79410Y92270
X75640Y94140
X75640Y97950
X74440Y102490
X74440Y105030
X74440Y107570
X74440Y110110
X74440Y112650
X74440Y115190
X74440Y117730
X74440Y120270
X74440Y122810
X74440Y125350
X75640Y129780
X73100Y129780
X76360Y136290
X80720Y136290
X79530Y167480
X76990Y167480
X74450Y167480
X71910Y167480
X69370Y167480
X66830Y167480
X64290Y167480
X61750Y167480
X59210Y167480
X56670Y167480
X56670Y173910
X47860Y173990
X47860Y171450
X47860Y168910
X47860Y166370
X42700Y161210
X40240Y166370
X40240Y168910
X40240Y171450
X40240Y173990
X40240Y176530
X40240Y179070
X40240Y181610
X40240Y184150
X40240Y186690
X40240Y189230
X35160Y189230
X35160Y186690
X35160Y184150
X35160Y181610
X35160Y179070
X35160Y176530
X35160Y173990
X35160Y171450
X35160Y168910
X35160Y166370
X32540Y161210
X27540Y166370
X27540Y168910
X27540Y171450
X27540Y173990
X27540Y176530
X27540Y179070
X27540Y181610
X27540Y184150
X27540Y186690
X27540Y189230
X32540Y195980
X42700Y195980
X47860Y189230
X47860Y186690
X47860Y184150
X47860Y181610
X47860Y179070
X47860Y176530
X52230Y193040
X53660Y196140
X63820Y196140
X64930Y193040
X73180Y196140
X83340Y196140
X93660Y196140
X103820Y196140
X109380Y186610
X108740Y177090
X100010Y180900
X98580Y177090
X97310Y167480
X94770Y167480
X92230Y167480
X89690Y167480
X87150Y167480
X84610Y167480
X82070Y167480
X83980Y177090
X83980Y180900
X87310Y180900
X88420Y177090
X83980Y184860
X71280Y184860
X71280Y180900
X71280Y177090
X66830Y173910
X99850Y167480
X102390Y167480
X104930Y167480
X107470Y167480
X110010Y167480
X112550Y167480
X115090Y167480
X117630Y167480
X120170Y167480
X122710Y167480
X125250Y167480
X127790Y167480
X130330Y167480
X132870Y167480
X135410Y167480
X135330Y172480
X125170Y172480
X121440Y177090
X122080Y186610
X129220Y189070
X131600Y189070
X131600Y192250
X129220Y192250
X132950Y196140
X141760Y192250
X144300Y192250
X144300Y189070
X141760Y189070
X144460Y185820
X152080Y185820
X152080Y189630
X152080Y192800
X153110Y195980
X143110Y196140
X131760Y185820
X151920Y167160
X154460Y167160
X154460Y169700
X157000Y169700
X159540Y169700
X159540Y167160
X157000Y167160
X154460Y164620
X154460Y162080
X154460Y159540
X154460Y157000
X151920Y157000
X151920Y159540
X151920Y162080
X151920Y164620
X151920Y154460
X154460Y154460
X154460Y151920
X151920Y151920
X151920Y149380
X154460Y149380
X154460Y146840
X154460Y144300
X154460Y141760
X151920Y141760
X151920Y144300
X151920Y146840
X157000Y141760
X157000Y139220
X154460Y139220
X159540Y139220
X162080Y139220
X164620Y139220
X164620Y141760
X162080Y141760
X159540Y141760
X167160Y141760
X167160Y139220
X169700Y139220
X172240Y139220
X174780Y139220
X174780Y141760
X172240Y141760
X169700Y141760
X177320Y141760
X177320Y139220
X179860Y139220
X179860Y141760
X179860Y144300
X179860Y146840
X179860Y149380
X182400Y149380
X182400Y146840
X182400Y144300
X182400Y141760
X182400Y151920
X182400Y154460
X179860Y154460
X179860Y151920
X179860Y157000
X179860Y159540
X179860Y162080
X179860Y164620
X179860Y167160
X177320Y167160
X174780Y167160
X172240Y167160
X172240Y169700
X174780Y169700
X177320Y169700
X179860Y169700
X182400Y167160
X182400Y164620
X182400Y162080
X182400Y159540
X182400Y157000
X192480Y157640
X193750Y153190
X193750Y150650
X193750Y148110
X193750Y145570
X193750Y143030
X193750Y140490
X193750Y137950
X193750Y135410
X192400Y130970
X189230Y132160
X189230Y128350
X188040Y124540
X177880Y124540
X176530Y128350
X174070Y129620
X176530Y132160
X174070Y133510
X173430Y124540
X163270Y124540
X159460Y125170
X159460Y122630
X159460Y120090
X159460Y117550
X159460Y115010
X159460Y112470
X159460Y109930
X159460Y107390
X159460Y104850
X159460Y102310
X159460Y99770
X159460Y97230
X159460Y94690
X159460Y92150
X159460Y89610
X159460Y87070
X159460Y84530
X159460Y81990
X159460Y79450
X159460Y76910
X167000Y77950
X167000Y80490
X167000Y83030
X167000Y85570
X167000Y88110
X165740Y92550
X167040Y98350
X167040Y100890
X167040Y103430
X167040Y105970
X165100Y111120
X175260Y111120
X177800Y111120
X177160Y105330
X174660Y105970
X174660Y103430
X174660Y100890
X174660Y98350
X177160Y97080
X178440Y101520
X178510Y92550
X175900Y92550
X174620Y88110
X174620Y85570
X174620Y83030
X174620Y80490
X174620Y77950
X174620Y75410
X174620Y70330
X170820Y66990
X167000Y70330
X167000Y72870
X167000Y75410
X179700Y75410
X179700Y77950
X179700Y80490
X179700Y83030
X179700Y85570
X179700Y88110
X187320Y88110
X187320Y85570
X187320Y83030
X187320Y80490
X187320Y77950
X187320Y75410
X187320Y72870
X187320Y70330
X192400Y70330
X192400Y72870
X192400Y75410
X192400Y77950
X192400Y80490
X192400Y83030
X192400Y85570
X192400Y88110
X191140Y92550
X188670Y92550
X189860Y97080
X188600Y101520
X189860Y105330
X190500Y111120
X201300Y92550
X203840Y92550
X205100Y88110
X205100Y85570
X205100Y83030
X205100Y80490
X205100Y77950
X205100Y75410
X205100Y72870
X205100Y70330
X200020Y70330
X200020Y72870
X200020Y75410
X200020Y77950
X200020Y80490
X200020Y83030
X200020Y85570
X200020Y88110
X212730Y88110
X212730Y85570
X212730Y83030
X212730Y80490
X212730Y77950
X212730Y75410
X212730Y72870
X212730Y70330
X212090Y66200
X212090Y63020
X212090Y59850
X212090Y56040
X199390Y56040
X196140Y56200
X199390Y59850
X199390Y63020
X199390Y66200
X194940Y65090
X196140Y61360
X196810Y49720
X199350Y49720
X194270Y49720
X191730Y49720
X189190Y49720
X186650Y49720
X184110Y49720
X181570Y49720
X179030Y49720
X176490Y49720
X170770Y49720
X168230Y49720
X165690Y49720
X163150Y49720
X160610Y49720
X158070Y49720
X155530Y49720
X152990Y49720
X150450Y49720
X147910Y49720
X142220Y49840
X139680Y49840
X137140Y49840
X134600Y49840
X132060Y49840
X129520Y49840
X126980Y49840
X124440Y49840
X121900Y49840
X119360Y49840
X116820Y49840
X114280Y49840
X111740Y49840
X109200Y49840
X106660Y49840
X104120Y49840
X101580Y49840
X99040Y49840
X96500Y49840
X93960Y49840
X86970Y52600
X84430Y52600
X81890Y52600
X79350Y52600
X76810Y52600
X74270Y52600
X71730Y52600
X69190Y52600
X66650Y52600
X64110Y52600
X64110Y44980
X66650Y44980
X69190Y44980
X71730Y44980
X74270Y44980
X76810Y44980
X79350Y44980
X81890Y44980
X84430Y44980
X86970Y44980
X93960Y34600
X96500Y34600
X99040Y34600
X101580Y34600
X104120Y34600
X106660Y34600
X109200Y34600
X111740Y34600
X114280Y34600
X116820Y34600
X119360Y34600
X121900Y34600
X124440Y34600
X126980Y34600
X129520Y34600
X132060Y34600
X134600Y34600
X137140Y34600
X139680Y34600
X142220Y34600
X147240Y33890
X148510Y37620
X147910Y42100
X150450Y42100
X152990Y42100
X155530Y42100
X158070Y42100
X160610Y42100
X163150Y42100
X165690Y42100
X168230Y42100
X170770Y42100
X173910Y37620
X176370Y38890
X176490Y42100
X179030Y42100
X181570Y42100
X184110Y42100
X186650Y42100
X189190Y42100
X191730Y42100
X194270Y42100
X196810Y42100
X199350Y42100
X199310Y38890
X199310Y34450
X189150Y34450
X189150Y38890
X186530Y38890
X183440Y56200
X183440Y61360
X184780Y65090
X179700Y70330
X179700Y72870
X145420Y58180
X135260Y58180
X132000Y74220
X121840Y74220
X121360Y77470
X121360Y81280
X125100Y85090
X114940Y81280
X113660Y85090
X103500Y85090
X102240Y81280
X94620Y81280
X94620Y77470
X92080Y85090
X81920Y85090
X81920Y81280
X81920Y77470
X76840Y81920
X76840Y85090
X75640Y90250
X64140Y85090
X64140Y81920
X62940Y90250
X62940Y94140
X65480Y97950
X66820Y102490
X60420Y110240
X52800Y110240
X51590Y105090
X52780Y99890
X52780Y97350
X52780Y94810
X52780Y92270
X52780Y89730
X52780Y87190
X52780Y84650
X52780Y82110
X52780Y79570
X24840Y79530
X24840Y83340
X24840Y87150
X26750Y98660
X16590Y98660
X12140Y87150
X12140Y83340
X12140Y79530
X82550Y66680
X85090Y66680
X95250Y66680
X158670Y37620
X161210Y37620
X159940Y33890
X214000Y92550
X202560Y130970
X201370Y135410
X201370Y137950
X201370Y140490
X201370Y143030
X201370Y145570
X201370Y148110
X201370Y150650
X201370Y153190
X202640Y157640
X206530Y158270
X206530Y155730
X206530Y153190
X206530Y150650
X206530Y148110
X206530Y145570
X206530Y143030
X206530Y140490
X206530Y137950
X206530Y135410
X214070Y137950
X201410Y162160
X201410Y164700
X201410Y167240
X201410Y169780
X201410Y172320
X201410Y174860
X201410Y177400
X201410Y179940
X206530Y179860
X206530Y177320
X206530Y174780
X206530Y172240
X206530Y169700
X206530Y167160
X206530Y164620
X193790Y164700
X193790Y167240
X193790Y169780
X193790Y172320
X193790Y174860
X193790Y177400
X193790Y179940
X190180Y185020
X190180Y188830
X190180Y192800
X191210Y195980
X184940Y192170
X184940Y188360
X184940Y184550
X187400Y179310
X187400Y175660
X177240Y175660
X177240Y179310
X171530Y175660
X169700Y169700
X169700Y167160
X167160Y167160
X164620Y167160
X162080Y167160
X162080Y169700
X164620Y169700
X167160Y169700
X161370Y175660
X162120Y180740
X164660Y180740
X167200Y180740
X164780Y185820
X164780Y189630
X164780Y192800
X163270Y195980
X172240Y192170
X172240Y188360
X172240Y184550
X173430Y195980
X183590Y195980
X201370Y195980
X202880Y192800
X202880Y188830
X202880Y185020
X206530Y184940
X206530Y182400
X206530Y187480
X193790Y162160
X163910Y133510
X161370Y129620
X158190Y129620
X158190Y133510
T05
X168120Y11430
X170020Y11430
X170660Y13810
X172720Y13810
X174620Y13810
X174620Y11430
X172720Y11430
X168120Y13810
X187170Y13810
X187170Y11430
X189070Y11430
X189710Y13810
X191770Y13810
X193680Y13810
X193680Y11430
X191770Y11430
T06
X61580Y26410
X64120Y26410
X66660Y26410
X69200Y26410
X71740Y26410
X74280Y26410
X76820Y26410
X79360Y26410
X81900Y26410
X84440Y26410
X84440Y28950
X81900Y28950
X79360Y28950
X76820Y28950
X74280Y28950
X71740Y28950
X69200Y28950
X66660Y28950
X64120Y28950
X61580Y28950
X61600Y36660
X64140Y36660
X66680Y36660
X69220Y36660
X71760Y36660
X74300Y36660
X76840Y36660
X79380Y36660
X81920Y36660
X84460Y36660
X84460Y39200
X81920Y39200
X79380Y39200
X76840Y39200
X74300Y39200
X71760Y39200
X69220Y39200
X66680Y39200
X64140Y39200
X61600Y39200
X96480Y27580
X96480Y25040
X99020Y25040
X99020Y27580
X101560Y27580
X101560Y25040
X104100Y25040
X104100Y27580
X106640Y27580
X106640Y25040
X109180Y25040
X109180Y27580
X111720Y27580
X111720Y25040
X114260Y25040
X114260Y27580
X116800Y27580
X116800Y25040
X119340Y25040
X119340Y27580
X121880Y27580
X121880Y25040
X124420Y25040
X124420Y27580
X126960Y27580
X126960Y25040
X129500Y25040
X129500Y27580
X132040Y27580
X132040Y25040
X134580Y25040
X134580Y27580
X137120Y27580
X137120Y25040
X139660Y25040
X139660Y27580
X142200Y27580
X142200Y25040
X144740Y25040
X144740Y27580
X147280Y27580
X147280Y25040
X149820Y25040
X149820Y27580
X152360Y27580
X152360Y25040
X154900Y25040
X154900Y27580
X157440Y27580
X157440Y25040
X147290Y12740
X144520Y12740
X141750Y12740
X138980Y12740
X136210Y12740
X133440Y12740
X130670Y12740
X127900Y12740
X125130Y12740
X122360Y12740
X119590Y12740
X116820Y12740
X114050Y12740
X115480Y10060
X118240Y10060
X121020Y10060
X123780Y10060
X126560Y10060
X129320Y10060
X132100Y10060
X134860Y10060
X137640Y10060
X140400Y10060
X143180Y10060
X145940Y10060
X140340Y62070
X140340Y64610
T07
X7780Y34770
X15880Y34770
X15880Y55880
X7780Y55880
X17780Y70640
X20320Y70640
X22860Y70640
X26720Y93030
X5720Y93030
X8410Y109380
X8410Y111920
X8410Y114460
X8410Y117000
X10950Y117000
X10950Y114460
X13490Y114460
X13490Y111920
X10950Y111920
X10950Y109380
X13490Y109380
X13490Y117000
X13490Y119540
X10950Y119540
X8410Y119540
X8410Y122080
X8410Y124620
X8410Y127160
X8410Y129700
X8410Y132240
X8410Y134780
X8410Y137320
X8410Y139860
X8410Y142400
X8410Y144940
X8410Y147480
X10950Y147480
X10950Y144940
X10950Y142400
X10950Y139860
X10950Y137320
X10950Y134780
X10950Y132240
X10950Y129700
X10950Y127160
X10950Y124620
X10950Y122080
X13490Y122080
X13490Y124620
X13490Y127160
X13490Y129700
X13490Y132240
X13490Y134780
X13490Y137320
X13490Y139860
X13490Y142400
X13490Y144940
X13490Y147480
X13490Y150020
X13490Y152560
X13490Y155100
X13490Y157640
X10950Y157640
X10950Y155100
X8410Y155100
X8410Y157640
X8410Y160180
X8410Y162720
X8410Y165260
X8410Y167800
X10950Y167800
X10950Y170340
X8410Y170340
X8410Y172880
X10950Y172880
X10950Y175420
X8410Y175420
X8410Y177960
X10950Y177960
X10950Y180500
X8410Y180500
X8410Y183040
X10950Y183040
X10950Y185580
X10950Y188120
X8410Y188120
X8410Y185580
X13490Y185580
X13490Y188120
X13490Y183040
X13490Y180500
X13490Y177960
X13490Y175420
X13490Y172880
X13490Y170340
X13490Y167800
X13490Y165260
X10950Y165260
X10950Y162720
X10950Y160180
X13490Y160180
X13490Y162720
X10950Y152560
X10950Y150020
X8410Y150020
X8410Y152560
X26350Y207170
X28890Y207170
X31430Y207170
X33970Y207170
X36510Y207170
X39050Y207170
X41590Y207170
X44130Y207170
X46670Y207170
X49210Y207170
X51750Y207170
X54290Y207170
X56830Y207170
X59370Y207170
X61910Y207170
X64450Y207170
X66990Y207170
X69530Y207170
X72070Y207170
X74610Y207170
X77150Y207170
X79690Y207170
X82230Y207170
X84770Y207170
X87310Y207170
X89850Y207170
X92390Y207170
X94930Y207170
X97470Y207170
X100010Y207170
X100010Y219870
X97470Y219870
X94930Y219870
X92390Y219870
X89850Y219870
X87310Y219870
X84770Y219870
X82230Y219870
X79690Y219870
X77150Y219870
X74610Y219870
X72070Y219870
X69530Y219870
X66990Y219870
X64450Y219870
X61910Y219870
X59370Y219870
X56830Y219870
X54290Y219870
X51750Y219870
X49210Y219870
X46670Y219870
X44130Y219870
X41590Y219870
X39050Y219870
X36510Y219870
X33970Y219870
X31430Y219870
X28890Y219870
X26350Y219870
X105410Y192330
X126410Y192330
X126520Y206850
X129060Y206850
X131600Y206850
X134140Y206850
X136680Y206850
X139220Y206850
X141760Y206850
X144300Y206850
X146840Y206850
X149380Y206850
X151920Y206850
X154460Y206850
X157000Y206850
X159540Y206850
X162080Y206850
X164620Y206850
X167160Y206850
X169700Y206850
X172240Y206850
X174780Y206850
X177320Y206850
X179860Y206850
X182400Y206850
X184940Y206850
X187480Y206850
X190020Y206850
X192560Y206850
X195100Y206850
X197640Y206850
X200180Y206850
X200180Y219550
X197640Y219550
X195100Y219550
X192560Y219550
X190020Y219550
X187480Y219550
X184940Y219550
X182400Y219550
X179860Y219550
X177320Y219550
X174780Y219550
X172240Y219550
X169700Y219550
X167160Y219550
X164620Y219550
X162080Y219550
X159540Y219550
X157000Y219550
X154460Y219550
X151920Y219550
X149380Y219550
X146840Y219550
X144300Y219550
X141760Y219550
X139220Y219550
X136680Y219550
X134140Y219550
X131600Y219550
X129060Y219550
X126520Y219550
X167040Y118190
X188040Y118190
X192560Y118190
X192560Y125810
X192560Y106600
X192560Y98900
X213560Y98900
X213560Y106600
X213560Y118190
X213560Y125810
X161970Y70800
X140970Y70800
X117360Y72230
X96360Y72230
X93390Y60960
X72390Y60960
X59690Y51440
X46990Y51440
X60710Y12900
X63480Y12900
X66250Y12900
X69020Y12900
X71790Y12900
X74560Y12900
X77330Y12900
X80100Y12900
X82870Y12900
X85690Y12900
X84300Y10060
X81520Y10060
X78760Y10060
X75980Y10060
X73220Y10060
X70440Y10060
X67680Y10060
X64900Y10060
X62140Y10060
X162480Y32460
X183480Y32460
X213280Y33100
X213280Y28020
X213280Y41350
X213280Y46430
T08
X148590Y59370
X151130Y59370
X177880Y59370
X181610Y59370
T09
X103800Y60220
X108000Y60220
X112200Y60220
X116400Y60220
X120600Y60220
X124800Y60220
X129000Y60220
X129000Y65770
X124800Y65770
X120600Y65770
X116400Y65770
X112200Y65770
X108000Y65770
X103800Y65770
T10
X148590Y66990
T11
X5960Y6570
X28730Y18730
X65560Y18730
X118900Y18730
X147960Y18730
X174620Y18730
X195580Y21270
X217260Y6570
T12
X207570Y6350
X207570Y11750
X207570Y17620
T13
X53820Y11430
X92710Y11430
X107160Y11430
X154150Y11430
M30
