%FSLAX34Y34*%
%MOMM*%
%LNSILK_BOTTOM*%
G71*
G01*
%ADD10C,0.318*%
%ADD11C,0.381*%
%ADD12C,0.238*%
%ADD13C,0.476*%
%ADD14C,0.600*%
%ADD15C,0.222*%
%LPD*%
G54D10*
X584712Y1521461D02*
X588712Y1523683D01*
X590046Y1525906D01*
X590046Y1530350D01*
G54D10*
X579379Y1530350D02*
X579379Y1512572D01*
X586046Y1512572D01*
X588712Y1513683D01*
X590046Y1515906D01*
X590046Y1518128D01*
X588712Y1520350D01*
X586046Y1521461D01*
X579379Y1521461D01*
G54D10*
X604268Y1529239D02*
X602135Y1530350D01*
X599468Y1530350D01*
X596801Y1529239D01*
X596268Y1527017D01*
X596268Y1523239D01*
X597601Y1521017D01*
X600268Y1520350D01*
X602935Y1521017D01*
X604268Y1522572D01*
X604268Y1524794D01*
X596268Y1524794D01*
G54D10*
X617157Y1521017D02*
X614490Y1520350D01*
X611823Y1521017D01*
X610490Y1523239D01*
X610490Y1527683D01*
X611823Y1529906D01*
X614490Y1530350D01*
X617157Y1529906D01*
G54D10*
X623379Y1530350D02*
X623379Y1520350D01*
G54D10*
X623379Y1522572D02*
X626046Y1520350D01*
X628712Y1520350D01*
G54D10*
X642934Y1529239D02*
X640801Y1530350D01*
X638134Y1530350D01*
X635467Y1529239D01*
X634934Y1527017D01*
X634934Y1523239D01*
X636267Y1521017D01*
X638934Y1520350D01*
X641601Y1521017D01*
X642934Y1522572D01*
X642934Y1524794D01*
X634934Y1524794D01*
G54D10*
X649156Y1521461D02*
X651823Y1520350D01*
X655023Y1520350D01*
X657156Y1522572D01*
X657156Y1530350D01*
G54D10*
X657156Y1527017D02*
X655823Y1524794D01*
X653156Y1524350D01*
X650489Y1524794D01*
X649156Y1527017D01*
X649689Y1529239D01*
X651823Y1530350D01*
X653156Y1530350D01*
X653689Y1530350D01*
X655823Y1529239D01*
X657156Y1527017D01*
G54D10*
X666045Y1512572D02*
X666045Y1529239D01*
X667378Y1530350D01*
X668711Y1529906D01*
G54D10*
X663378Y1520350D02*
X668711Y1520350D01*
G54D10*
X682933Y1529239D02*
X680800Y1530350D01*
X678133Y1530350D01*
X675466Y1529239D01*
X674933Y1527017D01*
X674933Y1523239D01*
X676266Y1521017D01*
X678933Y1520350D01*
X681600Y1521017D01*
X682933Y1522572D01*
X682933Y1524794D01*
X674933Y1524794D01*
G54D10*
X697155Y1530350D02*
X697155Y1512572D01*
G54D10*
X697155Y1523239D02*
X695822Y1521017D01*
X693155Y1520350D01*
X690488Y1521017D01*
X689155Y1523239D01*
X689155Y1527683D01*
X690488Y1529906D01*
X693155Y1530350D01*
X695822Y1529906D01*
X697155Y1527683D01*
G54D10*
X709866Y1530350D02*
X709866Y1520350D01*
G54D10*
X709866Y1517017D02*
X709866Y1517017D01*
G54D10*
X716088Y1530350D02*
X716088Y1520350D01*
G54D10*
X716088Y1522572D02*
X717421Y1521017D01*
X720088Y1520350D01*
X722755Y1521017D01*
X724088Y1522572D01*
X724088Y1530350D01*
G54D10*
X736799Y1527017D02*
X738132Y1529239D01*
X740799Y1530350D01*
X743466Y1530350D01*
X746132Y1529239D01*
X747466Y1527017D01*
X747466Y1524794D01*
X746132Y1522572D01*
X743466Y1521461D01*
X740799Y1521461D01*
X738132Y1520350D01*
X736799Y1518128D01*
X736799Y1515906D01*
X738132Y1513683D01*
X740799Y1512572D01*
X743466Y1512572D01*
X746132Y1513683D01*
X747466Y1515906D01*
G54D10*
X753688Y1520350D02*
X753688Y1534794D01*
G54D10*
X753688Y1527017D02*
X755021Y1529906D01*
X757688Y1530350D01*
X760355Y1529906D01*
X761688Y1527683D01*
X761688Y1523239D01*
X760355Y1521017D01*
X757688Y1520350D01*
X755021Y1521017D01*
X753688Y1523683D01*
G54D10*
X767910Y1530350D02*
X767910Y1520350D01*
G54D10*
X767910Y1522572D02*
X770577Y1520350D01*
X773243Y1520350D01*
G54D10*
X779465Y1530350D02*
X779465Y1520350D01*
G54D10*
X779465Y1517017D02*
X779465Y1517017D01*
G54D10*
X785687Y1530350D02*
X785687Y1520350D01*
G54D10*
X785687Y1522572D02*
X787020Y1521017D01*
X789687Y1520350D01*
X792354Y1521017D01*
X793687Y1522572D01*
X793687Y1530350D01*
G54D10*
X802576Y1512572D02*
X802576Y1529239D01*
X803909Y1530350D01*
X805242Y1529906D01*
G54D10*
X799909Y1520350D02*
X805242Y1520350D01*
G54D10*
X811464Y1522572D02*
X822131Y1522572D01*
G54D10*
X828353Y1512572D02*
X828353Y1530350D01*
X837686Y1530350D01*
G54D10*
X843908Y1521461D02*
X846575Y1520350D01*
X849775Y1520350D01*
X851908Y1522572D01*
X851908Y1530350D01*
G54D10*
X851908Y1527017D02*
X850575Y1524794D01*
X847908Y1524350D01*
X845241Y1524794D01*
X843908Y1527017D01*
X844441Y1529239D01*
X846575Y1530350D01*
X847908Y1530350D01*
X848441Y1530350D01*
X850575Y1529239D01*
X851908Y1527017D01*
G54D10*
X858130Y1520350D02*
X863463Y1530350D01*
X868797Y1520350D01*
G54D10*
X863463Y1530350D02*
X862130Y1533683D01*
X860797Y1534794D01*
X859463Y1534794D01*
G54D10*
X883019Y1527683D02*
X883019Y1523239D01*
X881686Y1521017D01*
X879019Y1520350D01*
X876352Y1521017D01*
X875019Y1523239D01*
X875019Y1527683D01*
X876352Y1529906D01*
X879019Y1530350D01*
X881686Y1529906D01*
X883019Y1527683D01*
G54D10*
X897241Y1520350D02*
X897241Y1530350D01*
G54D10*
X897241Y1528128D02*
X895908Y1529906D01*
X893241Y1530350D01*
X890574Y1529906D01*
X889241Y1528128D01*
X889241Y1520350D01*
G54D10*
X906130Y1512572D02*
X906130Y1529239D01*
X907463Y1530350D01*
X908796Y1529906D01*
G54D10*
X903463Y1520350D02*
X908796Y1520350D01*
G54D10*
X932174Y1515906D02*
X930840Y1513683D01*
X928174Y1512572D01*
X925507Y1512572D01*
X922840Y1513683D01*
X921507Y1515906D01*
X921507Y1521461D01*
X921507Y1522572D01*
X925507Y1520350D01*
X928174Y1520350D01*
X930840Y1521461D01*
X932174Y1523683D01*
X932174Y1527017D01*
X930840Y1529239D01*
X928174Y1530350D01*
X925507Y1530350D01*
X922840Y1529239D01*
X921507Y1527017D01*
X921507Y1521461D01*
G54D10*
X938396Y1530350D02*
X938396Y1530350D01*
G54D10*
X955285Y1515906D02*
X955285Y1527017D01*
X953951Y1529239D01*
X951285Y1530350D01*
X948618Y1530350D01*
X945951Y1529239D01*
X944618Y1527017D01*
X944618Y1515906D01*
X945951Y1513683D01*
X948618Y1512572D01*
X951285Y1512572D01*
X953951Y1513683D01*
X955285Y1515906D01*
G54D10*
X967996Y1530350D02*
X967996Y1512572D01*
G54D10*
X967996Y1523239D02*
X969329Y1521017D01*
X971996Y1520350D01*
X974663Y1521017D01*
X975996Y1523239D01*
X975996Y1527683D01*
X974663Y1529906D01*
X971996Y1530350D01*
X969329Y1529906D01*
X967996Y1527683D01*
G54D10*
X982218Y1520350D02*
X987551Y1530350D01*
X992885Y1520350D01*
G54D10*
X987551Y1530350D02*
X986218Y1533683D01*
X984885Y1534794D01*
X983551Y1534794D01*
G54D10*
X1005596Y1530350D02*
X1005596Y1512572D01*
G54D10*
X1005596Y1524794D02*
X1016263Y1512572D01*
G54D10*
X1009596Y1521461D02*
X1016263Y1530350D01*
G54D10*
X1022485Y1521461D02*
X1025152Y1520350D01*
X1028352Y1520350D01*
X1030485Y1522572D01*
X1030485Y1530350D01*
G54D10*
X1030485Y1527017D02*
X1029152Y1524794D01*
X1026485Y1524350D01*
X1023818Y1524794D01*
X1022485Y1527017D01*
X1023018Y1529239D01*
X1025152Y1530350D01*
X1026485Y1530350D01*
X1027018Y1530350D01*
X1029152Y1529239D01*
X1030485Y1527017D01*
G54D10*
X1036707Y1530350D02*
X1036707Y1520350D01*
G54D10*
X1036707Y1517017D02*
X1036707Y1517017D01*
G54D10*
X1054751Y1521461D02*
X1058751Y1523683D01*
X1060085Y1525906D01*
X1060085Y1530350D01*
G54D10*
X1049418Y1530350D02*
X1049418Y1512572D01*
X1056085Y1512572D01*
X1058751Y1513683D01*
X1060085Y1515906D01*
X1060085Y1518128D01*
X1058751Y1520350D01*
X1056085Y1521461D01*
X1049418Y1521461D01*
G54D10*
X1074307Y1527683D02*
X1074307Y1523239D01*
X1072974Y1521017D01*
X1070307Y1520350D01*
X1067640Y1521017D01*
X1066307Y1523239D01*
X1066307Y1527683D01*
X1067640Y1529906D01*
X1070307Y1530350D01*
X1072974Y1529906D01*
X1074307Y1527683D01*
G54D10*
X1080529Y1530350D02*
X1080529Y1512572D01*
G54D10*
X1080529Y1523239D02*
X1081862Y1521017D01*
X1084529Y1520350D01*
X1087196Y1521017D01*
X1088529Y1523239D01*
X1088529Y1527683D01*
X1087196Y1529906D01*
X1084529Y1530350D01*
X1081862Y1529906D01*
X1080529Y1527683D01*
G54D10*
X1094751Y1530350D02*
X1094751Y1520350D01*
G54D10*
X1094751Y1517017D02*
X1094751Y1517017D01*
G54D10*
X1100973Y1530350D02*
X1100973Y1520350D01*
G54D10*
X1100973Y1522572D02*
X1102306Y1521017D01*
X1104973Y1520350D01*
X1107640Y1521017D01*
X1108973Y1522572D01*
X1108973Y1530350D01*
G54D10*
X1115195Y1529239D02*
X1117862Y1530350D01*
X1120528Y1530350D01*
X1123195Y1529239D01*
X1123195Y1527017D01*
X1121862Y1525906D01*
X1116528Y1524794D01*
X1115195Y1523683D01*
X1115195Y1521461D01*
X1117862Y1520350D01*
X1120528Y1520350D01*
X1123195Y1521461D01*
G54D10*
X1137417Y1527683D02*
X1137417Y1523239D01*
X1136084Y1521017D01*
X1133417Y1520350D01*
X1130750Y1521017D01*
X1129417Y1523239D01*
X1129417Y1527683D01*
X1130750Y1529906D01*
X1133417Y1530350D01*
X1136084Y1529906D01*
X1137417Y1527683D01*
G54D10*
X1143639Y1530350D02*
X1143639Y1520350D01*
G54D10*
X1143639Y1522572D02*
X1144972Y1521017D01*
X1147639Y1520350D01*
X1150306Y1521017D01*
X1151639Y1522572D01*
X1151639Y1530350D01*
G54D10*
X579113Y1565117D02*
X580446Y1567339D01*
X583113Y1568450D01*
X585780Y1568450D01*
X588446Y1567339D01*
X589780Y1565117D01*
X589780Y1562894D01*
X588446Y1560672D01*
X585780Y1559561D01*
X583113Y1559561D01*
X580446Y1558450D01*
X579113Y1556228D01*
X579113Y1554006D01*
X580446Y1551783D01*
X583113Y1550672D01*
X585780Y1550672D01*
X588446Y1551783D01*
X589780Y1554006D01*
G54D10*
X596002Y1558450D02*
X596002Y1572894D01*
G54D10*
X596002Y1565117D02*
X597335Y1568006D01*
X600002Y1568450D01*
X602669Y1568006D01*
X604002Y1565783D01*
X604002Y1561339D01*
X602669Y1559117D01*
X600002Y1558450D01*
X597335Y1559117D01*
X596002Y1561783D01*
G54D10*
X618224Y1567339D02*
X616091Y1568450D01*
X613424Y1568450D01*
X610757Y1567339D01*
X610224Y1565117D01*
X610224Y1561339D01*
X611557Y1559117D01*
X614224Y1558450D01*
X616891Y1559117D01*
X618224Y1560672D01*
X618224Y1562894D01*
X610224Y1562894D01*
G54D10*
X631113Y1559117D02*
X628446Y1558450D01*
X625779Y1559117D01*
X624446Y1561339D01*
X624446Y1565783D01*
X625779Y1568006D01*
X628446Y1568450D01*
X631113Y1568006D01*
G54D10*
X637335Y1568450D02*
X637335Y1558450D01*
G54D10*
X637335Y1555117D02*
X637335Y1555117D01*
G54D10*
X643557Y1559561D02*
X646224Y1558450D01*
X649424Y1558450D01*
X651557Y1560672D01*
X651557Y1568450D01*
G54D10*
X651557Y1565117D02*
X650224Y1562894D01*
X647557Y1562450D01*
X644890Y1562894D01*
X643557Y1565117D01*
X644090Y1567339D01*
X646224Y1568450D01*
X647557Y1568450D01*
X648090Y1568450D01*
X650224Y1567339D01*
X651557Y1565117D01*
G54D10*
X657779Y1568450D02*
X657779Y1550672D01*
G54D10*
X675823Y1568450D02*
X675823Y1550672D01*
G54D10*
X670490Y1550672D02*
X681157Y1550672D01*
G54D10*
X687379Y1568450D02*
X687379Y1550672D01*
G54D10*
X687379Y1561339D02*
X688712Y1559117D01*
X691379Y1558450D01*
X694046Y1559117D01*
X695379Y1561339D01*
X695379Y1568450D01*
G54D10*
X701601Y1559561D02*
X704268Y1558450D01*
X707468Y1558450D01*
X709601Y1560672D01*
X709601Y1568450D01*
G54D10*
X709601Y1565117D02*
X708268Y1562894D01*
X705601Y1562450D01*
X702934Y1562894D01*
X701601Y1565117D01*
X702134Y1567339D01*
X704268Y1568450D01*
X705601Y1568450D01*
X706134Y1568450D01*
X708268Y1567339D01*
X709601Y1565117D01*
G54D10*
X715823Y1568450D02*
X715823Y1558450D01*
G54D10*
X715823Y1560672D02*
X717156Y1559117D01*
X719823Y1558450D01*
X722490Y1559117D01*
X723823Y1560672D01*
X723823Y1568450D01*
G54D10*
X730045Y1568450D02*
X730045Y1550672D01*
G54D10*
X734045Y1561783D02*
X738045Y1568450D01*
G54D10*
X730045Y1564006D02*
X738045Y1558450D01*
G54D10*
X744267Y1567339D02*
X746934Y1568450D01*
X749600Y1568450D01*
X752267Y1567339D01*
X752267Y1565117D01*
X750934Y1564006D01*
X745600Y1562894D01*
X744267Y1561783D01*
X744267Y1559561D01*
X746934Y1558450D01*
X749600Y1558450D01*
X752267Y1559561D01*
G54D10*
X767645Y1550672D02*
X767645Y1567339D01*
X768978Y1568450D01*
X770311Y1568006D01*
G54D10*
X764978Y1558450D02*
X770311Y1558450D01*
G54D10*
X784533Y1565783D02*
X784533Y1561339D01*
X783200Y1559117D01*
X780533Y1558450D01*
X777866Y1559117D01*
X776533Y1561339D01*
X776533Y1565783D01*
X777866Y1568006D01*
X780533Y1568450D01*
X783200Y1568006D01*
X784533Y1565783D01*
G54D10*
X790755Y1568450D02*
X790755Y1568450D01*
G54D10*
X790755Y1558450D02*
X790755Y1558450D01*
G54D10*
X808799Y1559561D02*
X812799Y1561783D01*
X814133Y1564006D01*
X814133Y1568450D01*
G54D10*
X803466Y1568450D02*
X803466Y1550672D01*
X810133Y1550672D01*
X812799Y1551783D01*
X814133Y1554006D01*
X814133Y1556228D01*
X812799Y1558450D01*
X810133Y1559561D01*
X803466Y1559561D01*
G54D10*
X828355Y1565783D02*
X828355Y1561339D01*
X827022Y1559117D01*
X824355Y1558450D01*
X821688Y1559117D01*
X820355Y1561339D01*
X820355Y1565783D01*
X821688Y1568006D01*
X824355Y1568450D01*
X827022Y1568006D01*
X828355Y1565783D01*
G54D10*
X834577Y1568450D02*
X834577Y1550672D01*
G54D10*
X834577Y1561339D02*
X835910Y1559117D01*
X838577Y1558450D01*
X841244Y1559117D01*
X842577Y1561339D01*
X842577Y1565783D01*
X841244Y1568006D01*
X838577Y1568450D01*
X835910Y1568006D01*
X834577Y1565783D01*
G54D10*
X855288Y1550672D02*
X855288Y1555117D01*
G54D10*
X859288Y1550672D02*
X859288Y1555117D01*
G54D10*
X865510Y1568450D02*
X865510Y1550672D01*
X872177Y1550672D01*
X874843Y1551783D01*
X876177Y1554006D01*
X876177Y1556228D01*
X874843Y1558450D01*
X872177Y1559561D01*
X865510Y1559561D01*
G54D10*
X890399Y1567339D02*
X888266Y1568450D01*
X885599Y1568450D01*
X882932Y1567339D01*
X882399Y1565117D01*
X882399Y1561339D01*
X883732Y1559117D01*
X886399Y1558450D01*
X889066Y1559117D01*
X890399Y1560672D01*
X890399Y1562894D01*
X882399Y1562894D01*
G54D10*
X904621Y1567339D02*
X902488Y1568450D01*
X899821Y1568450D01*
X897154Y1567339D01*
X896621Y1565117D01*
X896621Y1561339D01*
X897954Y1559117D01*
X900621Y1558450D01*
X903288Y1559117D01*
X904621Y1560672D01*
X904621Y1562894D01*
X896621Y1562894D01*
G54D10*
X910843Y1558450D02*
X910843Y1572894D01*
G54D10*
X910843Y1565117D02*
X912176Y1568006D01*
X914843Y1568450D01*
X917510Y1568006D01*
X918843Y1565783D01*
X918843Y1561339D01*
X917510Y1559117D01*
X914843Y1558450D01*
X912176Y1559117D01*
X910843Y1561783D01*
G54D10*
X933065Y1565783D02*
X933065Y1561339D01*
X931732Y1559117D01*
X929065Y1558450D01*
X926398Y1559117D01*
X925065Y1561339D01*
X925065Y1565783D01*
X926398Y1568006D01*
X929065Y1568450D01*
X931732Y1568006D01*
X933065Y1565783D01*
G54D10*
X939287Y1550672D02*
X939287Y1555117D01*
G54D10*
X943287Y1550672D02*
X943287Y1555117D01*
G54D10*
X961331Y1568450D02*
X961331Y1550672D01*
G54D10*
X955998Y1550672D02*
X966665Y1550672D01*
G54D10*
X972887Y1559561D02*
X975554Y1558450D01*
X978754Y1558450D01*
X980887Y1560672D01*
X980887Y1568450D01*
G54D10*
X980887Y1565117D02*
X979554Y1562894D01*
X976887Y1562450D01*
X974220Y1562894D01*
X972887Y1565117D01*
X973420Y1567339D01*
X975554Y1568450D01*
X976887Y1568450D01*
X977420Y1568450D01*
X979554Y1567339D01*
X980887Y1565117D01*
G54D10*
X987109Y1558450D02*
X992442Y1568450D01*
X997776Y1558450D01*
G54D10*
X992442Y1568450D02*
X991109Y1571783D01*
X989776Y1572894D01*
X988442Y1572894D01*
G54D10*
X1003998Y1568450D02*
X1003998Y1550672D01*
G54D10*
X1018220Y1565783D02*
X1018220Y1561339D01*
X1016887Y1559117D01*
X1014220Y1558450D01*
X1011553Y1559117D01*
X1010220Y1561339D01*
X1010220Y1565783D01*
X1011553Y1568006D01*
X1014220Y1568450D01*
X1016887Y1568006D01*
X1018220Y1565783D01*
G54D10*
X1024442Y1568450D02*
X1024442Y1558450D01*
G54D10*
X1024442Y1560672D02*
X1027109Y1558450D01*
X1029775Y1558450D01*
G54D10*
X989292Y2255522D02*
X989292Y2259967D01*
G54D10*
X993292Y2255522D02*
X993292Y2259967D01*
G54D10*
X999514Y2273300D02*
X999514Y2255522D01*
G54D10*
X1012225Y2273300D02*
X1012225Y2255522D01*
G54D10*
X1018447Y2273300D02*
X1018447Y2263300D01*
G54D10*
X1018447Y2259967D02*
X1018447Y2259967D01*
G54D10*
X1024669Y2263300D02*
X1030002Y2273300D01*
X1035336Y2263300D01*
G54D10*
X1049558Y2272189D02*
X1047425Y2273300D01*
X1044758Y2273300D01*
X1042091Y2272189D01*
X1041558Y2269967D01*
X1041558Y2266189D01*
X1042891Y2263967D01*
X1045558Y2263300D01*
X1048225Y2263967D01*
X1049558Y2265522D01*
X1049558Y2267744D01*
X1041558Y2267744D01*
G54D10*
X1058447Y2273300D02*
X1058447Y2275522D01*
X1057113Y2277744D01*
X1055780Y2277744D01*
G54D10*
X1071158Y2273300D02*
X1071158Y2255522D01*
G54D10*
X1091869Y2273300D02*
X1091869Y2255522D01*
G54D10*
X1091869Y2266189D02*
X1090536Y2263967D01*
X1087869Y2263300D01*
X1085202Y2263967D01*
X1083869Y2266189D01*
X1083869Y2270633D01*
X1085202Y2272856D01*
X1087869Y2273300D01*
X1090536Y2272856D01*
X1091869Y2270633D01*
G54D10*
X1098091Y2273300D02*
X1098091Y2263300D01*
G54D10*
X1098091Y2259967D02*
X1098091Y2259967D01*
G54D10*
X1112313Y2272189D02*
X1110180Y2273300D01*
X1107513Y2273300D01*
X1104846Y2272189D01*
X1104313Y2269967D01*
X1104313Y2266189D01*
X1105646Y2263967D01*
X1108313Y2263300D01*
X1110980Y2263967D01*
X1112313Y2265522D01*
X1112313Y2267744D01*
X1104313Y2267744D01*
G54D10*
X1121202Y2273300D02*
X1121202Y2275522D01*
X1119868Y2277744D01*
X1118535Y2277744D01*
G54D10*
X1133913Y2273300D02*
X1133913Y2255522D01*
G54D10*
X1146624Y2273300D02*
X1146624Y2255522D01*
G54D10*
X1152846Y2273300D02*
X1152846Y2263300D01*
G54D10*
X1152846Y2259967D02*
X1152846Y2259967D01*
G54D10*
X1159068Y2263300D02*
X1164401Y2273300D01*
X1169735Y2263300D01*
G54D10*
X1183957Y2272189D02*
X1181824Y2273300D01*
X1179157Y2273300D01*
X1176490Y2272189D01*
X1175957Y2269967D01*
X1175957Y2266189D01*
X1177290Y2263967D01*
X1179957Y2263300D01*
X1182624Y2263967D01*
X1183957Y2265522D01*
X1183957Y2267744D01*
X1175957Y2267744D01*
G54D10*
X1196668Y2264411D02*
X1199335Y2263300D01*
X1202535Y2263300D01*
X1204668Y2265522D01*
X1204668Y2273300D01*
G54D10*
X1204668Y2269967D02*
X1203335Y2267744D01*
X1200668Y2267300D01*
X1198001Y2267744D01*
X1196668Y2269967D01*
X1197201Y2272189D01*
X1199335Y2273300D01*
X1200668Y2273300D01*
X1201201Y2273300D01*
X1203335Y2272189D01*
X1204668Y2269967D01*
G54D10*
X1210890Y2276633D02*
X1213557Y2277744D01*
X1215423Y2277744D01*
X1218090Y2276633D01*
X1218890Y2274411D01*
X1218890Y2263300D01*
G54D10*
X1218890Y2266189D02*
X1217557Y2263967D01*
X1214890Y2263300D01*
X1212223Y2263967D01*
X1210890Y2266189D01*
X1210890Y2270633D01*
X1212223Y2272856D01*
X1214890Y2273300D01*
X1217557Y2272856D01*
X1218890Y2270633D01*
G54D10*
X1225112Y2264411D02*
X1227779Y2263300D01*
X1230979Y2263300D01*
X1233112Y2265522D01*
X1233112Y2273300D01*
G54D10*
X1233112Y2269967D02*
X1231779Y2267744D01*
X1229112Y2267300D01*
X1226445Y2267744D01*
X1225112Y2269967D01*
X1225645Y2272189D01*
X1227779Y2273300D01*
X1229112Y2273300D01*
X1229645Y2273300D01*
X1231779Y2272189D01*
X1233112Y2269967D01*
G54D10*
X1239334Y2273300D02*
X1239334Y2263300D01*
G54D10*
X1239334Y2259967D02*
X1239334Y2259967D01*
G54D10*
X1245556Y2273300D02*
X1245556Y2263300D01*
G54D10*
X1245556Y2265522D02*
X1246889Y2263967D01*
X1249556Y2263300D01*
X1252223Y2263967D01*
X1253556Y2265522D01*
X1253556Y2273300D01*
G54D10*
X1259778Y2255522D02*
X1259778Y2268856D01*
G54D10*
X1259778Y2273300D02*
X1259778Y2273300D01*
G54D10*
X1266000Y2255522D02*
X1266000Y2259967D01*
G54D10*
X1270000Y2255522D02*
X1270000Y2259967D01*
G54D10*
X579418Y1606550D02*
X579418Y1588772D01*
G54D10*
X585640Y1606550D02*
X585640Y1596550D01*
G54D10*
X585640Y1598772D02*
X586973Y1597217D01*
X589640Y1596550D01*
X592306Y1597217D01*
X593640Y1598772D01*
X593640Y1606550D01*
G54D10*
X599862Y1605439D02*
X602528Y1606550D01*
X605195Y1606550D01*
X607862Y1605439D01*
X607862Y1603217D01*
X606528Y1602106D01*
X601195Y1600994D01*
X599862Y1599883D01*
X599862Y1597661D01*
X602528Y1596550D01*
X605195Y1596550D01*
X607862Y1597661D01*
G54D10*
X614084Y1596550D02*
X614084Y1610994D01*
G54D10*
X614084Y1603217D02*
X615417Y1606106D01*
X618084Y1606550D01*
X620750Y1606106D01*
X622084Y1603883D01*
X622084Y1599439D01*
X620750Y1597217D01*
X618084Y1596550D01*
X615417Y1597217D01*
X614084Y1599883D01*
G54D10*
X628306Y1606550D02*
X628306Y1596550D01*
G54D10*
X628306Y1593217D02*
X628306Y1593217D01*
G54D10*
X634528Y1606550D02*
X634528Y1596550D01*
G54D10*
X634528Y1598772D02*
X637194Y1596550D01*
X639861Y1596550D01*
G54D10*
X654083Y1605439D02*
X651949Y1606550D01*
X649283Y1606550D01*
X646616Y1605439D01*
X646083Y1603217D01*
X646083Y1599439D01*
X647416Y1597217D01*
X650083Y1596550D01*
X652749Y1597217D01*
X654083Y1598772D01*
X654083Y1600994D01*
X646083Y1600994D01*
G54D10*
X668305Y1606550D02*
X668305Y1588772D01*
G54D10*
X668305Y1599439D02*
X666971Y1597217D01*
X664305Y1596550D01*
X661638Y1597217D01*
X660305Y1599439D01*
X660305Y1603883D01*
X661638Y1606106D01*
X664305Y1606550D01*
X666971Y1606106D01*
X668305Y1603883D01*
G54D10*
X681016Y1606550D02*
X681016Y1588772D01*
G54D10*
X681016Y1599439D02*
X682349Y1597217D01*
X685016Y1596550D01*
X687682Y1597217D01*
X689016Y1599439D01*
X689016Y1603883D01*
X687682Y1606106D01*
X685016Y1606550D01*
X682349Y1606106D01*
X681016Y1603883D01*
G54D10*
X695238Y1596550D02*
X700571Y1606550D01*
X705904Y1596550D01*
G54D10*
X700571Y1606550D02*
X699238Y1609883D01*
X697904Y1610994D01*
X696571Y1610994D01*
G54D10*
X712127Y1606550D02*
X712127Y1606550D01*
G54D10*
X712127Y1596550D02*
X712127Y1596550D01*
G54D10*
X735504Y1588772D02*
X735504Y1603217D01*
X734171Y1605439D01*
X731504Y1606550D01*
X728838Y1606550D01*
X726171Y1605439D01*
X724838Y1603217D01*
G54D10*
X749727Y1603883D02*
X749727Y1599439D01*
X748393Y1597217D01*
X745727Y1596550D01*
X743060Y1597217D01*
X741727Y1599439D01*
X741727Y1603883D01*
X743060Y1606106D01*
X745727Y1606550D01*
X748393Y1606106D01*
X749727Y1603883D01*
G54D10*
X755949Y1606550D02*
X755949Y1588772D01*
G54D10*
X755949Y1599439D02*
X757282Y1597217D01*
X759949Y1596550D01*
X762615Y1597217D01*
X763949Y1599439D01*
X763949Y1606550D01*
G54D10*
X770171Y1606550D02*
X770171Y1596550D01*
G54D10*
X770171Y1598772D02*
X771504Y1597217D01*
X774171Y1596550D01*
X776837Y1597217D01*
X778171Y1598772D01*
X778171Y1606550D01*
G54D10*
X790882Y1588772D02*
X790882Y1593217D01*
G54D10*
X794882Y1588772D02*
X794882Y1593217D01*
G54D10*
X811770Y1603217D02*
X810437Y1605439D01*
X807770Y1606550D01*
X805104Y1606550D01*
X802437Y1605439D01*
X801104Y1603217D01*
X801104Y1592106D01*
X802437Y1589883D01*
X805104Y1588772D01*
X807770Y1588772D01*
X810437Y1589883D01*
X811770Y1592106D01*
G54D10*
X817993Y1606550D02*
X817993Y1588772D01*
G54D10*
X817993Y1599439D02*
X819326Y1597217D01*
X821993Y1596550D01*
X824659Y1597217D01*
X825993Y1599439D01*
X825993Y1606550D01*
G54D10*
X840215Y1596550D02*
X840215Y1606550D01*
G54D10*
X840215Y1604328D02*
X838881Y1606106D01*
X836215Y1606550D01*
X833548Y1606106D01*
X832215Y1604328D01*
X832215Y1596550D01*
G54D10*
X853103Y1597217D02*
X850437Y1596550D01*
X847770Y1597217D01*
X846437Y1599439D01*
X846437Y1603883D01*
X847770Y1606106D01*
X850437Y1606550D01*
X853103Y1606106D01*
G54D10*
X859326Y1606550D02*
X859326Y1588772D01*
G54D10*
X863326Y1599883D02*
X867326Y1606550D01*
G54D10*
X859326Y1602106D02*
X867326Y1596550D01*
G54D10*
X873548Y1596550D02*
X878881Y1606550D01*
X884214Y1596550D01*
G54D10*
X878881Y1606550D02*
X877548Y1609883D01*
X876214Y1610994D01*
X874881Y1610994D01*
G54D10*
X890437Y1588772D02*
X890437Y1593217D01*
G54D10*
X894437Y1588772D02*
X894437Y1593217D01*
G54D10*
X907148Y1606550D02*
X907148Y1588772D01*
G54D10*
X917814Y1606550D02*
X917814Y1588772D01*
G54D10*
X907148Y1597661D02*
X917814Y1597661D01*
G54D10*
X932037Y1605439D02*
X929903Y1606550D01*
X927237Y1606550D01*
X924570Y1605439D01*
X924037Y1603217D01*
X924037Y1599439D01*
X925370Y1597217D01*
X928037Y1596550D01*
X930703Y1597217D01*
X932037Y1598772D01*
X932037Y1600994D01*
X924037Y1600994D01*
G54D10*
X938259Y1606550D02*
X938259Y1596550D01*
G54D10*
X938259Y1598772D02*
X940925Y1596550D01*
X943592Y1596550D01*
G54D10*
X952480Y1588772D02*
X952480Y1605439D01*
X953814Y1606550D01*
X955147Y1606106D01*
G54D10*
X949814Y1596550D02*
X955147Y1596550D01*
G54D10*
X969369Y1605439D02*
X967235Y1606550D01*
X964569Y1606550D01*
X961902Y1605439D01*
X961369Y1603217D01*
X961369Y1599439D01*
X962702Y1597217D01*
X965369Y1596550D01*
X968035Y1597217D01*
X969369Y1598772D01*
X969369Y1600994D01*
X961369Y1600994D01*
G54D10*
X975591Y1606550D02*
X975591Y1588772D01*
G54D10*
X981813Y1606550D02*
X981813Y1588772D01*
G54D11*
X2197100Y495250D02*
X2175767Y495250D01*
G54D11*
X2175766Y501650D02*
X2175767Y488850D01*
G54D11*
X2197100Y481383D02*
X2185100Y481383D01*
G54D11*
X2181100Y481383D02*
X2181100Y481383D01*
G54D11*
X2197100Y473916D02*
X2185100Y473916D01*
G54D11*
X2187767Y473916D02*
X2185900Y472316D01*
X2185100Y469116D01*
X2185900Y465916D01*
X2187767Y464316D01*
X2197100Y464316D01*
G54D11*
X2197100Y456849D02*
X2175767Y456849D01*
G54D11*
X2189100Y452049D02*
X2197100Y447249D01*
G54D11*
X2191767Y456849D02*
X2185100Y447249D01*
G54D11*
X2195767Y430182D02*
X2197100Y432742D01*
X2197100Y435942D01*
X2195767Y439142D01*
X2193100Y439782D01*
X2188567Y439782D01*
X2185900Y438182D01*
X2185100Y434982D01*
X2185900Y431782D01*
X2187767Y430182D01*
X2190434Y430182D01*
X2190434Y439782D01*
G54D11*
X2197100Y422715D02*
X2185100Y422715D01*
G54D11*
X2187767Y422715D02*
X2185100Y419515D01*
X2185100Y416315D01*
G54D11*
X2197100Y408848D02*
X2175767Y408848D01*
X2175767Y400848D01*
X2177100Y397648D01*
X2179767Y396048D01*
X2193100Y396048D01*
X2195767Y397648D01*
X2197100Y400848D01*
X2197100Y408848D01*
G54D11*
X2197100Y388581D02*
X2185100Y388581D01*
G54D11*
X2181100Y388581D02*
X2181100Y388581D01*
G54D11*
X2197100Y377914D02*
X2177100Y377914D01*
X2175767Y376314D01*
X2176567Y374714D01*
G54D11*
X2185100Y381114D02*
X2185100Y374714D01*
G54D11*
X2197100Y364047D02*
X2177100Y364047D01*
X2175767Y362447D01*
X2176567Y360847D01*
G54D11*
X2185100Y367247D02*
X2185100Y360847D01*
G54D11*
X2195767Y343780D02*
X2197100Y346340D01*
X2197100Y349540D01*
X2195767Y352740D01*
X2193100Y353380D01*
X2188567Y353380D01*
X2185900Y351780D01*
X2185100Y348580D01*
X2185900Y345380D01*
X2187767Y343780D01*
X2190434Y343780D01*
X2190434Y353380D01*
G54D11*
X2197100Y336313D02*
X2185100Y336313D01*
G54D11*
X2187767Y336313D02*
X2185100Y333113D01*
X2185100Y329913D01*
G54D11*
X2195767Y312846D02*
X2197100Y315406D01*
X2197100Y318606D01*
X2195767Y321806D01*
X2193100Y322446D01*
X2188567Y322446D01*
X2185900Y320846D01*
X2185100Y317646D01*
X2185900Y314446D01*
X2187767Y312846D01*
X2190434Y312846D01*
X2190434Y322446D01*
G54D11*
X2197100Y305379D02*
X2185100Y305379D01*
G54D11*
X2187767Y305379D02*
X2185900Y303779D01*
X2185100Y300579D01*
X2185900Y297379D01*
X2187767Y295779D01*
X2197100Y295779D01*
G54D11*
X2175767Y285112D02*
X2195767Y285112D01*
X2197100Y283512D01*
X2196567Y281912D01*
G54D11*
X2185100Y288312D02*
X2185100Y281912D01*
G54D11*
X2197100Y255458D02*
X2197100Y266658D01*
X2175767Y266658D01*
X2175767Y255458D01*
G54D11*
X2186434Y266658D02*
X2186434Y255458D01*
G54D11*
X2197100Y238391D02*
X2175767Y238391D01*
G54D11*
X2188567Y238391D02*
X2185900Y239991D01*
X2185100Y243191D01*
X2185900Y246391D01*
X2188567Y247991D01*
X2193900Y247991D01*
X2196567Y246391D01*
X2197100Y243191D01*
X2196567Y239991D01*
X2193900Y238391D01*
G54D11*
X2197100Y230924D02*
X2185100Y230924D01*
G54D11*
X2181100Y230924D02*
X2181100Y230924D01*
G54D11*
X2175767Y220257D02*
X2195767Y220257D01*
X2197100Y218657D01*
X2196567Y217057D01*
G54D11*
X2185100Y223457D02*
X2185100Y217057D01*
G54D11*
X2197100Y209590D02*
X2185100Y209590D01*
G54D11*
X2181100Y209590D02*
X2181100Y209590D01*
G54D11*
X2193900Y192523D02*
X2188567Y192523D01*
X2185900Y194123D01*
X2185100Y197323D01*
X2185900Y200523D01*
X2188567Y202123D01*
X2193900Y202123D01*
X2196567Y200523D01*
X2197100Y197323D01*
X2196567Y194123D01*
X2193900Y192523D01*
G54D11*
X2197100Y185056D02*
X2185100Y185056D01*
G54D11*
X2187767Y185056D02*
X2185900Y183456D01*
X2185100Y180256D01*
X2185900Y177056D01*
X2187767Y175456D01*
X2197100Y175456D01*
G54D12*
X1042343Y2173437D02*
X1042343Y2160103D01*
X1047343Y2160103D01*
X1049343Y2160937D01*
X1050343Y2162603D01*
X1050343Y2164270D01*
X1049343Y2165937D01*
X1047343Y2166770D01*
X1049343Y2167603D01*
X1050343Y2169270D01*
X1050343Y2170937D01*
X1049343Y2172603D01*
X1047343Y2173437D01*
X1042343Y2173437D01*
G54D12*
X1042343Y2166770D02*
X1047343Y2166770D01*
G54D12*
X1061010Y2171437D02*
X1061010Y2168103D01*
X1060010Y2166437D01*
X1058010Y2165937D01*
X1056010Y2166437D01*
X1055010Y2168103D01*
X1055010Y2171437D01*
X1056010Y2173103D01*
X1058010Y2173437D01*
X1060010Y2173103D01*
X1061010Y2171437D01*
G54D12*
X1065677Y2166770D02*
X1067677Y2165937D01*
X1070077Y2165937D01*
X1071677Y2167603D01*
X1071677Y2173437D01*
G54D12*
X1071677Y2170937D02*
X1070677Y2169270D01*
X1068677Y2168937D01*
X1066677Y2169270D01*
X1065677Y2170937D01*
X1066077Y2172603D01*
X1067677Y2173437D01*
X1068677Y2173437D01*
X1069077Y2173437D01*
X1070677Y2172603D01*
X1071677Y2170937D01*
G54D12*
X1076344Y2173437D02*
X1076344Y2165937D01*
G54D12*
X1076344Y2167603D02*
X1078344Y2165937D01*
X1080344Y2165937D01*
G54D12*
X1091011Y2173437D02*
X1091011Y2160103D01*
G54D12*
X1091011Y2168103D02*
X1090011Y2166437D01*
X1088011Y2165937D01*
X1086011Y2166437D01*
X1085011Y2168103D01*
X1085011Y2171437D01*
X1086011Y2173103D01*
X1088011Y2173437D01*
X1090011Y2173103D01*
X1091011Y2171437D01*
G54D12*
X1104545Y2166770D02*
X1107545Y2168437D01*
X1108545Y2170103D01*
X1108545Y2173437D01*
G54D12*
X1100545Y2173437D02*
X1100545Y2160103D01*
X1105545Y2160103D01*
X1107545Y2160937D01*
X1108545Y2162603D01*
X1108545Y2164270D01*
X1107545Y2165937D01*
X1105545Y2166770D01*
X1100545Y2166770D01*
G54D12*
X1119212Y2172603D02*
X1117612Y2173437D01*
X1115612Y2173437D01*
X1113612Y2172603D01*
X1113212Y2170937D01*
X1113212Y2168103D01*
X1114212Y2166437D01*
X1116212Y2165937D01*
X1118212Y2166437D01*
X1119212Y2167603D01*
X1119212Y2169270D01*
X1113212Y2169270D01*
G54D12*
X1123879Y2165937D02*
X1127879Y2173437D01*
X1131879Y2165937D01*
G54D12*
X1136546Y2173437D02*
X1136546Y2165937D01*
G54D12*
X1136546Y2163437D02*
X1136546Y2163437D01*
G54D12*
X1141213Y2172603D02*
X1143213Y2173437D01*
X1145213Y2173437D01*
X1147213Y2172603D01*
X1147213Y2170937D01*
X1146213Y2170103D01*
X1142213Y2169270D01*
X1141213Y2168437D01*
X1141213Y2166770D01*
X1143213Y2165937D01*
X1145213Y2165937D01*
X1147213Y2166770D01*
G54D12*
X1151880Y2173437D02*
X1151880Y2165937D01*
G54D12*
X1151880Y2163437D02*
X1151880Y2163437D01*
G54D12*
X1162547Y2171437D02*
X1162547Y2168103D01*
X1161547Y2166437D01*
X1159547Y2165937D01*
X1157547Y2166437D01*
X1156547Y2168103D01*
X1156547Y2171437D01*
X1157547Y2173103D01*
X1159547Y2173437D01*
X1161547Y2173103D01*
X1162547Y2171437D01*
G54D12*
X1167214Y2173437D02*
X1167214Y2165937D01*
G54D12*
X1167214Y2167603D02*
X1168214Y2166437D01*
X1170214Y2165937D01*
X1172214Y2166437D01*
X1173214Y2167603D01*
X1173214Y2173437D01*
G54D12*
X1182748Y2165937D02*
X1186748Y2173437D01*
X1190748Y2165937D01*
G54D12*
X1195415Y2165103D02*
X1200415Y2160103D01*
X1200415Y2173437D01*
G54D12*
X1205082Y2173437D02*
X1205082Y2173437D01*
G54D12*
X1217749Y2162603D02*
X1216749Y2160937D01*
X1214749Y2160103D01*
X1212749Y2160103D01*
X1210749Y2160937D01*
X1209749Y2162603D01*
X1209749Y2166770D01*
X1209749Y2167603D01*
X1212749Y2165937D01*
X1214749Y2165937D01*
X1216749Y2166770D01*
X1217749Y2168437D01*
X1217749Y2170937D01*
X1216749Y2172603D01*
X1214749Y2173437D01*
X1212749Y2173437D01*
X1210749Y2172603D01*
X1209749Y2170937D01*
X1209749Y2166770D01*
G54D12*
X1222416Y2173437D02*
X1222416Y2160103D01*
G54D12*
X1222416Y2168103D02*
X1223416Y2166437D01*
X1225416Y2165937D01*
X1227416Y2166437D01*
X1228416Y2168103D01*
X1228416Y2171437D01*
X1227416Y2173103D01*
X1225416Y2173437D01*
X1223416Y2173103D01*
X1222416Y2171437D01*
G54D13*
X929203Y2146816D02*
X929203Y2120149D01*
X939203Y2136816D01*
X949203Y2120149D01*
X949203Y2146816D01*
G54D13*
X958536Y2133482D02*
X962536Y2131816D01*
X967336Y2131816D01*
X970536Y2135149D01*
X970536Y2146816D01*
G54D13*
X970536Y2141816D02*
X968536Y2138482D01*
X964536Y2137816D01*
X960536Y2138482D01*
X958536Y2141816D01*
X959336Y2145149D01*
X962536Y2146816D01*
X964536Y2146816D01*
X965336Y2146816D01*
X968536Y2145149D01*
X970536Y2141816D01*
G54D13*
X989869Y2132816D02*
X985869Y2131816D01*
X981869Y2132816D01*
X979869Y2136149D01*
X979869Y2142816D01*
X981869Y2146149D01*
X985869Y2146816D01*
X989869Y2146149D01*
G54D13*
X999202Y2146816D02*
X999202Y2131816D01*
G54D13*
X999202Y2126816D02*
X999202Y2126816D01*
G54D13*
X1008535Y2146816D02*
X1008535Y2131816D01*
G54D13*
X1008535Y2135149D02*
X1010535Y2132816D01*
X1014535Y2131816D01*
X1018535Y2132816D01*
X1020535Y2135149D01*
X1020535Y2146816D01*
G54D13*
X1033868Y2120149D02*
X1033868Y2145149D01*
X1035868Y2146816D01*
X1037868Y2146149D01*
G54D13*
X1029868Y2131816D02*
X1037868Y2131816D01*
G54D13*
X1059201Y2142816D02*
X1059201Y2136149D01*
X1057201Y2132816D01*
X1053201Y2131816D01*
X1049201Y2132816D01*
X1047201Y2136149D01*
X1047201Y2142816D01*
X1049201Y2146149D01*
X1053201Y2146816D01*
X1057201Y2146149D01*
X1059201Y2142816D01*
G54D13*
X1068534Y2145149D02*
X1072534Y2146816D01*
X1076534Y2146816D01*
X1080534Y2145149D01*
X1080534Y2141816D01*
X1078534Y2140149D01*
X1070534Y2138482D01*
X1068534Y2136816D01*
X1068534Y2133482D01*
X1072534Y2131816D01*
X1076534Y2131816D01*
X1080534Y2133482D01*
G54D13*
X1089867Y2146816D02*
X1089867Y2120149D01*
G54D13*
X1089867Y2136149D02*
X1091867Y2132816D01*
X1095867Y2131816D01*
X1099867Y2132816D01*
X1101867Y2136149D01*
X1101867Y2146816D01*
G54D13*
X1120933Y2141816D02*
X1122933Y2145149D01*
X1126933Y2146816D01*
X1130933Y2146816D01*
X1134933Y2145149D01*
X1136933Y2141816D01*
X1136933Y2138482D01*
X1134933Y2135149D01*
X1130933Y2133482D01*
X1126933Y2133482D01*
X1122933Y2131816D01*
X1120933Y2128482D01*
X1120933Y2125149D01*
X1122933Y2121816D01*
X1126933Y2120149D01*
X1130933Y2120149D01*
X1134933Y2121816D01*
X1136933Y2125149D01*
G54D13*
X1160266Y2146816D02*
X1146266Y2146816D01*
X1146266Y2120149D01*
X1160266Y2120149D01*
G54D13*
X1146266Y2133482D02*
X1160266Y2133482D01*
G54D13*
X1187332Y2133482D02*
X1193332Y2136816D01*
X1195332Y2140149D01*
X1195332Y2146816D01*
G54D13*
X1179332Y2146816D02*
X1179332Y2120149D01*
X1189332Y2120149D01*
X1193332Y2121816D01*
X1195332Y2125149D01*
X1195332Y2128482D01*
X1193332Y2131816D01*
X1189332Y2133482D01*
X1179332Y2133482D01*
G54D13*
X1216665Y2145149D02*
X1213465Y2146816D01*
X1209465Y2146816D01*
X1205465Y2145149D01*
X1204665Y2141816D01*
X1204665Y2136149D01*
X1206665Y2132816D01*
X1210665Y2131816D01*
X1214665Y2132816D01*
X1216665Y2135149D01*
X1216665Y2138482D01*
X1204665Y2138482D01*
G54D13*
X1225998Y2146816D02*
X1225998Y2120149D01*
G54D13*
X1247331Y2142816D02*
X1247331Y2136149D01*
X1245331Y2132816D01*
X1241331Y2131816D01*
X1237331Y2132816D01*
X1235331Y2136149D01*
X1235331Y2142816D01*
X1237331Y2146149D01*
X1241331Y2146816D01*
X1245331Y2146149D01*
X1247331Y2142816D01*
G54D13*
X1256664Y2133482D02*
X1260664Y2131816D01*
X1265464Y2131816D01*
X1268664Y2135149D01*
X1268664Y2146816D01*
G54D13*
X1268664Y2141816D02*
X1266664Y2138482D01*
X1262664Y2137816D01*
X1258664Y2138482D01*
X1256664Y2141816D01*
X1257464Y2145149D01*
X1260664Y2146816D01*
X1262664Y2146816D01*
X1263464Y2146816D01*
X1266664Y2145149D01*
X1268664Y2141816D01*
G54D13*
X1289997Y2146816D02*
X1289997Y2120149D01*
G54D13*
X1289997Y2136149D02*
X1287997Y2132816D01*
X1283997Y2131816D01*
X1279997Y2132816D01*
X1277997Y2136149D01*
X1277997Y2142816D01*
X1279997Y2146149D01*
X1283997Y2146816D01*
X1287997Y2146149D01*
X1289997Y2142816D01*
G54D13*
X1311330Y2145149D02*
X1308130Y2146816D01*
X1304130Y2146816D01*
X1300130Y2145149D01*
X1299330Y2141816D01*
X1299330Y2136149D01*
X1301330Y2132816D01*
X1305330Y2131816D01*
X1309330Y2132816D01*
X1311330Y2135149D01*
X1311330Y2138482D01*
X1299330Y2138482D01*
G54D13*
X1332663Y2146816D02*
X1332663Y2120149D01*
G54D13*
X1332663Y2136149D02*
X1330663Y2132816D01*
X1326663Y2131816D01*
X1322663Y2132816D01*
X1320663Y2136149D01*
X1320663Y2142816D01*
X1322663Y2146149D01*
X1326663Y2146816D01*
X1330663Y2146149D01*
X1332663Y2142816D01*
G54D14*
X558800Y1628775D02*
X1358900Y1628775D01*
X1358900Y1489075D01*
X558800Y1489075D01*
X558800Y1628775D01*
G54D15*
X0Y2300000D02*
X17778Y2300000D01*
G54D15*
X7111Y2300000D02*
X9334Y2301334D01*
X10000Y2304000D01*
X9334Y2306666D01*
X7111Y2308000D01*
X0Y2308000D01*
G54D15*
X17778Y2315556D02*
X1111Y2315556D01*
X0Y2316889D01*
X444Y2318222D01*
G54D15*
X10000Y2312889D02*
X10000Y2318222D01*
G54D15*
X17778Y2325778D02*
X1111Y2325778D01*
X0Y2327111D01*
X444Y2328444D01*
G54D15*
X10000Y2323111D02*
X10000Y2328444D01*
G54D15*
X10000Y2333333D02*
X-4444Y2333333D01*
G54D15*
X3334Y2333333D02*
X444Y2334666D01*
X0Y2337333D01*
X444Y2340000D01*
X2666Y2341333D01*
X7111Y2341333D01*
X9334Y2340000D01*
X10000Y2337333D01*
X9334Y2334666D01*
X6666Y2333333D01*
G54D15*
X1111Y2346222D02*
X0Y2348889D01*
X0Y2351555D01*
X1111Y2354222D01*
X3334Y2354222D01*
X4444Y2352889D01*
X5556Y2347555D01*
X6666Y2346222D01*
X8889Y2346222D01*
X10000Y2348889D01*
X10000Y2351555D01*
X8889Y2354222D01*
G54D15*
X0Y2359111D02*
X0Y2359111D01*
G54D15*
X10000Y2359111D02*
X10000Y2359111D01*
G54D15*
X0Y2364000D02*
X17778Y2374667D01*
G54D15*
X0Y2379556D02*
X17778Y2390223D01*
G54D15*
X-3334Y2395112D02*
X-4444Y2397779D01*
X-4444Y2399645D01*
X-3334Y2402312D01*
X-1111Y2403112D01*
X10000Y2403112D01*
G54D15*
X7111Y2403112D02*
X9334Y2401779D01*
X10000Y2399112D01*
X9334Y2396445D01*
X7111Y2395112D01*
X2666Y2395112D01*
X444Y2396445D01*
X0Y2399112D01*
X444Y2401779D01*
X2666Y2403112D01*
G54D15*
X0Y2408001D02*
X10000Y2408001D01*
G54D15*
X13334Y2408001D02*
X13334Y2408001D01*
G54D15*
X17778Y2415557D02*
X1111Y2415557D01*
X0Y2416890D01*
X444Y2418223D01*
G54D15*
X10000Y2412890D02*
X10000Y2418223D01*
G54D15*
X0Y2423112D02*
X17778Y2423112D01*
G54D15*
X7111Y2423112D02*
X9334Y2424445D01*
X10000Y2427112D01*
X9334Y2429779D01*
X7111Y2431112D01*
X0Y2431112D01*
G54D15*
X10000Y2444001D02*
X0Y2444001D01*
G54D15*
X2222Y2444001D02*
X444Y2442668D01*
X0Y2440001D01*
X444Y2437334D01*
X2222Y2436001D01*
X10000Y2436001D01*
G54D15*
X0Y2448890D02*
X17778Y2448890D01*
G54D15*
X7111Y2448890D02*
X9334Y2450223D01*
X10000Y2452890D01*
X9334Y2455557D01*
X7111Y2456890D01*
X2666Y2456890D01*
X444Y2455557D01*
X0Y2452890D01*
X444Y2450223D01*
X2666Y2448890D01*
G54D15*
X0Y2461779D02*
X0Y2461779D01*
G54D15*
X9334Y2473335D02*
X10000Y2470668D01*
X9334Y2468001D01*
X7111Y2466668D01*
X2666Y2466668D01*
X444Y2468001D01*
X0Y2470668D01*
X444Y2473335D01*
G54D15*
X2666Y2486224D02*
X7111Y2486224D01*
X9334Y2484891D01*
X10000Y2482224D01*
X9334Y2479557D01*
X7111Y2478224D01*
X2666Y2478224D01*
X444Y2479557D01*
X0Y2482224D01*
X444Y2484891D01*
X2666Y2486224D01*
G54D15*
X0Y2491113D02*
X10000Y2491113D01*
G54D15*
X8222Y2491113D02*
X10000Y2493780D01*
X9334Y2496446D01*
X7778Y2497780D01*
X0Y2497780D01*
G54D15*
X8222Y2497780D02*
X10000Y2500446D01*
X9334Y2503113D01*
X7778Y2504446D01*
X0Y2504446D01*
G54D15*
X0Y2509335D02*
X17778Y2520002D01*
G54D15*
X0Y2524891D02*
X17778Y2524891D01*
G54D15*
X6666Y2528891D02*
X0Y2532891D01*
G54D15*
X4444Y2524891D02*
X10000Y2532891D01*
G54D15*
X0Y2537780D02*
X10000Y2537780D01*
G54D15*
X7778Y2537780D02*
X10000Y2540447D01*
X10000Y2543113D01*
G54D15*
X0Y2558669D02*
X0Y2548002D01*
X1111Y2548002D01*
X3334Y2549335D01*
X10000Y2557335D01*
X12222Y2558669D01*
X14444Y2558669D01*
X16666Y2557335D01*
X17778Y2554669D01*
X17778Y2552002D01*
X16666Y2549335D01*
X14444Y2548002D01*
G54D15*
X14444Y2563558D02*
X16666Y2564891D01*
X17778Y2567558D01*
X17778Y2570225D01*
X16666Y2572891D01*
X14444Y2574225D01*
X12222Y2574225D01*
X10000Y2572891D01*
X8889Y2570225D01*
X7778Y2572891D01*
X5556Y2574225D01*
X3334Y2574225D01*
X1111Y2572891D01*
X0Y2570225D01*
X0Y2567558D01*
X1111Y2564891D01*
X3334Y2563558D01*
G54D15*
X3334Y2579114D02*
X1111Y2580447D01*
X0Y2583114D01*
X0Y2585781D01*
X1111Y2588447D01*
X3334Y2589781D01*
X8889Y2589781D01*
X10000Y2589781D01*
X7778Y2585781D01*
X7778Y2583114D01*
X8889Y2580447D01*
X11111Y2579114D01*
X14444Y2579114D01*
X16666Y2580447D01*
X17778Y2583114D01*
X17778Y2585781D01*
X16666Y2588447D01*
X14444Y2589781D01*
X8889Y2589781D01*
G54D15*
X0Y2594670D02*
X17778Y2605337D01*
G54D15*
X0Y2610226D02*
X17778Y2610226D01*
X6666Y2616893D01*
X17778Y2623559D01*
X0Y2623559D01*
G54D15*
X8889Y2628448D02*
X10000Y2631115D01*
X10000Y2634315D01*
X7778Y2636448D01*
X0Y2636448D01*
G54D15*
X3334Y2636448D02*
X5556Y2635115D01*
X6000Y2632448D01*
X5556Y2629781D01*
X3334Y2628448D01*
X1111Y2628981D01*
X0Y2631115D01*
X0Y2632448D01*
X0Y2632981D01*
X1111Y2635115D01*
X3334Y2636448D01*
G54D15*
X9334Y2648004D02*
X10000Y2645337D01*
X9334Y2642670D01*
X7111Y2641337D01*
X2666Y2641337D01*
X444Y2642670D01*
X0Y2645337D01*
X444Y2648004D01*
G54D15*
X0Y2652893D02*
X10000Y2652893D01*
G54D15*
X13334Y2652893D02*
X13334Y2652893D01*
G54D15*
X0Y2657782D02*
X10000Y2657782D01*
G54D15*
X7778Y2657782D02*
X9334Y2659115D01*
X10000Y2661782D01*
X9334Y2664449D01*
X7778Y2665782D01*
X0Y2665782D01*
G54D15*
X17778Y2673338D02*
X1111Y2673338D01*
X0Y2674671D01*
X444Y2676004D01*
G54D15*
X10000Y2670671D02*
X10000Y2676004D01*
G54D15*
X2666Y2688893D02*
X7111Y2688893D01*
X9334Y2687560D01*
X10000Y2684893D01*
X9334Y2682226D01*
X7111Y2680893D01*
X2666Y2680893D01*
X444Y2682226D01*
X0Y2684893D01*
X444Y2687560D01*
X2666Y2688893D01*
G54D15*
X1111Y2693782D02*
X0Y2696449D01*
X0Y2699115D01*
X1111Y2701782D01*
X3334Y2701782D01*
X4444Y2700449D01*
X5556Y2695115D01*
X6666Y2693782D01*
X8889Y2693782D01*
X10000Y2696449D01*
X10000Y2699115D01*
X8889Y2701782D01*
G54D15*
X0Y2706671D02*
X17778Y2706671D01*
G54D15*
X7111Y2706671D02*
X9334Y2708004D01*
X10000Y2710671D01*
X9334Y2713338D01*
X7111Y2714671D01*
X0Y2714671D01*
G54D15*
X7778Y2719560D02*
X7778Y2730227D01*
G54D15*
X3334Y2735116D02*
X1111Y2736449D01*
X0Y2739116D01*
X0Y2741783D01*
X1111Y2744449D01*
X3334Y2745783D01*
X5556Y2745783D01*
X7778Y2744449D01*
X8889Y2741783D01*
X8889Y2739116D01*
X10000Y2736449D01*
X12222Y2735116D01*
X14444Y2735116D01*
X16666Y2736449D01*
X17778Y2739116D01*
X17778Y2741783D01*
X16666Y2744449D01*
X14444Y2745783D01*
G54D15*
X0Y2760005D02*
X0Y2750672D01*
X17778Y2750672D01*
X17778Y2760005D01*
G54D15*
X8889Y2750672D02*
X8889Y2760005D01*
G54D15*
X7778Y2764894D02*
X7778Y2775561D01*
G54D15*
X8889Y2785783D02*
X6666Y2789783D01*
X4444Y2791117D01*
X0Y2791117D01*
G54D15*
X0Y2780450D02*
X17778Y2780450D01*
X17778Y2787117D01*
X16666Y2789783D01*
X14444Y2791117D01*
X12222Y2791117D01*
X10000Y2789783D01*
X8889Y2787117D01*
X8889Y2780450D01*
G54D15*
X1111Y2804006D02*
X0Y2801873D01*
X0Y2799206D01*
X1111Y2796539D01*
X3334Y2796006D01*
X7111Y2796006D01*
X9334Y2797339D01*
X10000Y2800006D01*
X9334Y2802673D01*
X7778Y2804006D01*
X5556Y2804006D01*
X5556Y2796006D01*
G54D15*
X0Y2808895D02*
X17778Y2808895D01*
G54D15*
X2666Y2821784D02*
X7111Y2821784D01*
X9334Y2820451D01*
X10000Y2817784D01*
X9334Y2815117D01*
X7111Y2813784D01*
X2666Y2813784D01*
X444Y2815117D01*
X0Y2817784D01*
X444Y2820451D01*
X2666Y2821784D01*
G54D15*
X8889Y2826673D02*
X10000Y2829340D01*
X10000Y2832540D01*
X7778Y2834673D01*
X0Y2834673D01*
G54D15*
X3334Y2834673D02*
X5556Y2833340D01*
X6000Y2830673D01*
X5556Y2828006D01*
X3334Y2826673D01*
X1111Y2827206D01*
X0Y2829340D01*
X0Y2830673D01*
X0Y2831206D01*
X1111Y2833340D01*
X3334Y2834673D01*
G54D15*
X0Y2847562D02*
X17778Y2847562D01*
G54D15*
X7111Y2847562D02*
X9334Y2846229D01*
X10000Y2843562D01*
X9334Y2840895D01*
X7111Y2839562D01*
X2666Y2839562D01*
X444Y2840895D01*
X0Y2843562D01*
X444Y2846229D01*
X2666Y2847562D01*
G54D15*
X1111Y2860451D02*
X0Y2858318D01*
X0Y2855651D01*
X1111Y2852984D01*
X3334Y2852451D01*
X7111Y2852451D01*
X9334Y2853784D01*
X10000Y2856451D01*
X9334Y2859118D01*
X7778Y2860451D01*
X5556Y2860451D01*
X5556Y2852451D01*
G54D15*
X0Y2873340D02*
X17778Y2873340D01*
G54D15*
X7111Y2873340D02*
X9334Y2872007D01*
X10000Y2869340D01*
X9334Y2866673D01*
X7111Y2865340D01*
X2666Y2865340D01*
X444Y2866673D01*
X0Y2869340D01*
X444Y2872007D01*
X2666Y2873340D01*
G54D10*
X31750Y884238D02*
X13972Y884238D01*
G54D10*
X24639Y884238D02*
X22417Y882904D01*
X21750Y880238D01*
X22417Y877571D01*
X24639Y876238D01*
X31750Y876238D01*
G54D10*
X13972Y867349D02*
X30639Y867349D01*
X31750Y866016D01*
X31306Y864682D01*
G54D10*
X21750Y870016D02*
X21750Y864682D01*
G54D10*
X13972Y855794D02*
X30639Y855794D01*
X31750Y854460D01*
X31306Y853127D01*
G54D10*
X21750Y858460D02*
X21750Y853127D01*
G54D10*
X21750Y846906D02*
X36194Y846906D01*
G54D10*
X28417Y846906D02*
X31306Y845572D01*
X31750Y842906D01*
X31306Y840239D01*
X29084Y838906D01*
X24639Y838906D01*
X22417Y840239D01*
X21750Y842906D01*
X22417Y845572D01*
X25084Y846906D01*
G54D10*
X30639Y832684D02*
X31750Y830017D01*
X31750Y827350D01*
X30639Y824684D01*
X28417Y824684D01*
X27306Y826017D01*
X26194Y831350D01*
X25084Y832684D01*
X22861Y832684D01*
X21750Y830017D01*
X21750Y827350D01*
X22861Y824684D01*
G54D10*
X31750Y818462D02*
X31750Y818462D01*
G54D10*
X21750Y818462D02*
X21750Y818462D01*
G54D10*
X31750Y812240D02*
X13972Y801573D01*
G54D10*
X31750Y795350D02*
X13972Y784684D01*
G54D10*
X35084Y778462D02*
X36194Y775795D01*
X36194Y773928D01*
X35084Y771262D01*
X32861Y770462D01*
X21750Y770462D01*
G54D10*
X24639Y770462D02*
X22417Y771795D01*
X21750Y774462D01*
X22417Y777128D01*
X24639Y778462D01*
X29084Y778462D01*
X31306Y777128D01*
X31750Y774462D01*
X31306Y771795D01*
X29084Y770462D01*
G54D10*
X31750Y764240D02*
X21750Y764240D01*
G54D10*
X18417Y764240D02*
X18417Y764240D01*
G54D10*
X13972Y755351D02*
X30639Y755351D01*
X31750Y754018D01*
X31306Y752684D01*
G54D10*
X21750Y758018D02*
X21750Y752684D01*
G54D10*
X31750Y746462D02*
X13972Y746462D01*
G54D10*
X24639Y746462D02*
X22417Y745129D01*
X21750Y742462D01*
X22417Y739796D01*
X24639Y738462D01*
X31750Y738462D01*
G54D10*
X21750Y724240D02*
X31750Y724240D01*
G54D10*
X29528Y724240D02*
X31306Y725574D01*
X31750Y728240D01*
X31306Y730907D01*
X29528Y732240D01*
X21750Y732240D01*
G54D10*
X31750Y718018D02*
X13972Y718018D01*
G54D10*
X24639Y718018D02*
X22417Y716685D01*
X21750Y714018D01*
X22417Y711352D01*
X24639Y710018D01*
X29084Y710018D01*
X31306Y711352D01*
X31750Y714018D01*
X31306Y716685D01*
X29084Y718018D01*
G54D10*
X31750Y703796D02*
X31750Y703796D01*
G54D10*
X22417Y690908D02*
X21750Y693574D01*
X22417Y696241D01*
X24639Y697574D01*
X29084Y697574D01*
X31306Y696241D01*
X31750Y693574D01*
X31306Y690908D01*
G54D10*
X29084Y676686D02*
X24639Y676686D01*
X22417Y678019D01*
X21750Y680686D01*
X22417Y683352D01*
X24639Y684686D01*
X29084Y684686D01*
X31306Y683352D01*
X31750Y680686D01*
X31306Y678019D01*
X29084Y676686D01*
G54D10*
X31750Y670464D02*
X21750Y670464D01*
G54D10*
X23528Y670464D02*
X21750Y667797D01*
X22417Y665130D01*
X23972Y663797D01*
X31750Y663797D01*
G54D10*
X23528Y663797D02*
X21750Y661130D01*
X22417Y658464D01*
X23972Y657130D01*
X31750Y657130D01*
G54D10*
X31750Y650908D02*
X13972Y640242D01*
G54D10*
X31750Y634020D02*
X13972Y634020D01*
G54D10*
X25084Y630020D02*
X31750Y626020D01*
G54D10*
X27306Y634020D02*
X21750Y626020D01*
G54D10*
X31750Y619798D02*
X21750Y619798D01*
G54D10*
X23972Y619798D02*
X21750Y617131D01*
X21750Y614464D01*
G54D10*
X31750Y597576D02*
X31750Y608242D01*
X30639Y608242D01*
X28417Y606909D01*
X21750Y598909D01*
X19528Y597576D01*
X17306Y597576D01*
X15084Y598909D01*
X13972Y601576D01*
X13972Y604242D01*
X15084Y606909D01*
X17306Y608242D01*
G54D10*
X17306Y591354D02*
X15084Y590020D01*
X13972Y587354D01*
X13972Y584687D01*
X15084Y582020D01*
X17306Y580687D01*
X19528Y580687D01*
X21750Y582020D01*
X22861Y584687D01*
X23972Y582020D01*
X26194Y580687D01*
X28417Y580687D01*
X30639Y582020D01*
X31750Y584687D01*
X31750Y587354D01*
X30639Y590020D01*
X28417Y591354D01*
G54D10*
X28417Y574464D02*
X30639Y573131D01*
X31750Y570464D01*
X31750Y567798D01*
X30639Y565131D01*
X28417Y563798D01*
X22861Y563798D01*
X21750Y563798D01*
X23972Y567798D01*
X23972Y570464D01*
X22861Y573131D01*
X20639Y574464D01*
X17306Y574464D01*
X15084Y573131D01*
X13972Y570464D01*
X13972Y567798D01*
X15084Y565131D01*
X17306Y563798D01*
X22861Y563798D01*
G54D10*
X31750Y557576D02*
X13972Y546909D01*
G54D10*
X31750Y540686D02*
X13972Y540686D01*
X25084Y534020D01*
X13972Y527353D01*
X31750Y527353D01*
G54D10*
X22861Y521132D02*
X21750Y518465D01*
X21750Y515265D01*
X23972Y513132D01*
X31750Y513132D01*
G54D10*
X28417Y513132D02*
X26194Y514465D01*
X25750Y517132D01*
X26194Y519798D01*
X28417Y521132D01*
X30639Y520598D01*
X31750Y518465D01*
X31750Y517132D01*
X31750Y516598D01*
X30639Y514465D01*
X28417Y513132D01*
G54D10*
X22417Y500243D02*
X21750Y502910D01*
X22417Y505576D01*
X24639Y506910D01*
X29084Y506910D01*
X31306Y505576D01*
X31750Y502910D01*
X31306Y500243D01*
G54D10*
X31750Y494020D02*
X21750Y494020D01*
G54D10*
X18417Y494020D02*
X18417Y494020D01*
G54D10*
X31750Y487798D02*
X21750Y487798D01*
G54D10*
X23972Y487798D02*
X22417Y486465D01*
X21750Y483798D01*
X22417Y481132D01*
X23972Y479798D01*
X31750Y479798D01*
G54D10*
X13972Y470910D02*
X30639Y470910D01*
X31750Y469576D01*
X31306Y468243D01*
G54D10*
X21750Y473576D02*
X21750Y468243D01*
G54D10*
X29084Y454022D02*
X24639Y454022D01*
X22417Y455355D01*
X21750Y458022D01*
X22417Y460688D01*
X24639Y462022D01*
X29084Y462022D01*
X31306Y460688D01*
X31750Y458022D01*
X31306Y455355D01*
X29084Y454022D01*
G54D10*
X30639Y447800D02*
X31750Y445133D01*
X31750Y442466D01*
X30639Y439800D01*
X28417Y439800D01*
X27306Y441133D01*
X26194Y446466D01*
X25084Y447800D01*
X22861Y447800D01*
X21750Y445133D01*
X21750Y442466D01*
X22861Y439800D01*
G54D10*
X31750Y433578D02*
X13972Y433578D01*
G54D10*
X24639Y433578D02*
X22417Y432244D01*
X21750Y429578D01*
X22417Y426911D01*
X24639Y425578D01*
X31750Y425578D01*
G54D10*
X23972Y419356D02*
X23972Y408689D01*
G54D10*
X28417Y402466D02*
X30639Y401133D01*
X31750Y398466D01*
X31750Y395800D01*
X30639Y393133D01*
X28417Y391800D01*
X26194Y391800D01*
X23972Y393133D01*
X22861Y395800D01*
X22861Y398466D01*
X21750Y401133D01*
X19528Y402466D01*
X17306Y402466D01*
X15084Y401133D01*
X13972Y398466D01*
X13972Y395800D01*
X15084Y393133D01*
X17306Y391800D01*
G54D10*
X31750Y376244D02*
X31750Y385578D01*
X13972Y385578D01*
X13972Y376244D01*
G54D10*
X22861Y385578D02*
X22861Y376244D01*
G54D10*
X23972Y370022D02*
X23972Y359356D01*
G54D10*
X22861Y347800D02*
X25084Y343800D01*
X27306Y342467D01*
X31750Y342467D01*
G54D10*
X31750Y353134D02*
X13972Y353134D01*
X13972Y346467D01*
X15084Y343800D01*
X17306Y342467D01*
X19528Y342467D01*
X21750Y343800D01*
X22861Y346467D01*
X22861Y353134D01*
G54D10*
X30639Y328244D02*
X31750Y330378D01*
X31750Y333044D01*
X30639Y335711D01*
X28417Y336244D01*
X24639Y336244D01*
X22417Y334911D01*
X21750Y332244D01*
X22417Y329578D01*
X23972Y328244D01*
X26194Y328244D01*
X26194Y336244D01*
G54D10*
X31750Y322022D02*
X13972Y322022D01*
G54D10*
X29084Y307800D02*
X24639Y307800D01*
X22417Y309134D01*
X21750Y311800D01*
X22417Y314467D01*
X24639Y315800D01*
X29084Y315800D01*
X31306Y314467D01*
X31750Y311800D01*
X31306Y309134D01*
X29084Y307800D01*
G54D10*
X22861Y301578D02*
X21750Y298912D01*
X21750Y295712D01*
X23972Y293578D01*
X31750Y293578D01*
G54D10*
X28417Y293578D02*
X26194Y294912D01*
X25750Y297578D01*
X26194Y300245D01*
X28417Y301578D01*
X30639Y301045D01*
X31750Y298912D01*
X31750Y297578D01*
X31750Y297045D01*
X30639Y294912D01*
X28417Y293578D01*
G54D10*
X31750Y279356D02*
X13972Y279356D01*
G54D10*
X24639Y279356D02*
X22417Y280690D01*
X21750Y283356D01*
X22417Y286023D01*
X24639Y287356D01*
X29084Y287356D01*
X31306Y286023D01*
X31750Y283356D01*
X31306Y280690D01*
X29084Y279356D01*
G54D10*
X30639Y265134D02*
X31750Y267268D01*
X31750Y269934D01*
X30639Y272601D01*
X28417Y273134D01*
X24639Y273134D01*
X22417Y271801D01*
X21750Y269134D01*
X22417Y266468D01*
X23972Y265134D01*
X26194Y265134D01*
X26194Y273134D01*
G54D10*
X31750Y250912D02*
X13972Y250912D01*
G54D10*
X24639Y250912D02*
X22417Y252246D01*
X21750Y254912D01*
X22417Y257579D01*
X24639Y258912D01*
X29084Y258912D01*
X31306Y257579D01*
X31750Y254912D01*
X31306Y252246D01*
X29084Y250912D01*
M02*
