%FSLAX34Y34*%
%MOMM*%
%LNSOLDERMASK_BOTTOM*%
G71*
G01*
%ADD10C,2.200*%
%ADD11C,2.300*%
%ADD12C,2.000*%
%ADD13C,2.400*%
%ADD14C,2.200*%
%ADD15C,2.350*%
%ADD16C,3.600*%
%ADD17C,2.600*%
%ADD18C,2.600*%
%ADD19C,5.600*%
%ADD20C,5.100*%
%ADD21C,4.800*%
%ADD22C,1.400*%
%ADD23C,4.600*%
%ADD24C,1.200*%
%ADD25C,2.200*%
%ADD26C,0.800*%
%LPD*%
G36*
X373576Y678275D02*
X373576Y656275D01*
X351576Y656275D01*
X351576Y678275D01*
X373576Y678275D01*
G37*
X362576Y641875D02*
G54D10*
D03*
X362576Y616475D02*
G54D10*
D03*
X362575Y591075D02*
G54D10*
D03*
X438776Y591075D02*
G54D10*
D03*
X438776Y616475D02*
G54D10*
D03*
X438776Y641875D02*
G54D10*
D03*
X438775Y667275D02*
G54D10*
D03*
G36*
X537653Y464456D02*
X515653Y464456D01*
X515653Y486456D01*
X537653Y486456D01*
X537653Y464456D01*
G37*
X501253Y475456D02*
G54D10*
D03*
X475853Y475456D02*
G54D10*
D03*
X450453Y475456D02*
G54D10*
D03*
X425053Y475456D02*
G54D10*
D03*
X399653Y475456D02*
G54D10*
D03*
X374253Y475456D02*
G54D10*
D03*
X348853Y475456D02*
G54D10*
D03*
X323453Y475456D02*
G54D10*
D03*
X298053Y475456D02*
G54D10*
D03*
X298053Y399256D02*
G54D10*
D03*
X323453Y399256D02*
G54D10*
D03*
X348853Y399256D02*
G54D10*
D03*
X374253Y399256D02*
G54D10*
D03*
X399653Y399256D02*
G54D10*
D03*
X425053Y399256D02*
G54D10*
D03*
X450453Y399256D02*
G54D10*
D03*
X475853Y399256D02*
G54D10*
D03*
X501253Y399256D02*
G54D10*
D03*
X526653Y399256D02*
G54D10*
D03*
G36*
X525450Y324000D02*
X503450Y324000D01*
X503450Y346000D01*
X525450Y346000D01*
X525450Y324000D01*
G37*
X489050Y335000D02*
G54D10*
D03*
X463650Y335000D02*
G54D10*
D03*
X438250Y335000D02*
G54D10*
D03*
X438250Y258800D02*
G54D10*
D03*
X463650Y258800D02*
G54D10*
D03*
X489050Y258800D02*
G54D10*
D03*
X514450Y258800D02*
G54D10*
D03*
G36*
X880703Y515000D02*
X858703Y515000D01*
X858703Y537000D01*
X880703Y537000D01*
X880703Y515000D01*
G37*
X844303Y526000D02*
G54D10*
D03*
X818903Y526000D02*
G54D10*
D03*
X793503Y526000D02*
G54D10*
D03*
X768103Y526000D02*
G54D10*
D03*
X742703Y526000D02*
G54D10*
D03*
X717303Y526000D02*
G54D10*
D03*
X691903Y526000D02*
G54D10*
D03*
X666503Y526000D02*
G54D10*
D03*
X641103Y526000D02*
G54D10*
D03*
X641103Y449800D02*
G54D10*
D03*
X666503Y449800D02*
G54D10*
D03*
X691903Y449800D02*
G54D10*
D03*
X717303Y449800D02*
G54D10*
D03*
X742703Y449800D02*
G54D10*
D03*
X768103Y449800D02*
G54D10*
D03*
X793503Y449800D02*
G54D10*
D03*
X818903Y449800D02*
G54D10*
D03*
X844303Y449800D02*
G54D10*
D03*
X869703Y449800D02*
G54D10*
D03*
G36*
X856100Y380500D02*
X833100Y380500D01*
X833100Y403500D01*
X856100Y403500D01*
X856100Y380500D01*
G37*
X844600Y366600D02*
G54D11*
D03*
X819200Y392000D02*
G54D11*
D03*
X819200Y366600D02*
G54D11*
D03*
X793800Y392000D02*
G54D11*
D03*
X793800Y366600D02*
G54D11*
D03*
X768400Y392000D02*
G54D11*
D03*
X768400Y366600D02*
G54D11*
D03*
X743000Y392000D02*
G54D11*
D03*
X743000Y366600D02*
G54D11*
D03*
X717600Y392000D02*
G54D11*
D03*
X717600Y366600D02*
G54D11*
D03*
X692200Y392000D02*
G54D11*
D03*
X692200Y366600D02*
G54D11*
D03*
X666800Y392000D02*
G54D11*
D03*
X666800Y366600D02*
G54D11*
D03*
X641400Y392000D02*
G54D11*
D03*
X641400Y366600D02*
G54D11*
D03*
X616000Y392000D02*
G54D11*
D03*
X616000Y366600D02*
G54D11*
D03*
G36*
X855850Y278000D02*
X832850Y278000D01*
X832850Y301000D01*
X855850Y301000D01*
X855850Y278000D01*
G37*
X844350Y264100D02*
G54D11*
D03*
X818950Y289500D02*
G54D11*
D03*
X818950Y264100D02*
G54D11*
D03*
X793550Y289500D02*
G54D11*
D03*
X793550Y264100D02*
G54D11*
D03*
X768150Y289500D02*
G54D11*
D03*
X768150Y264100D02*
G54D11*
D03*
X742750Y289500D02*
G54D11*
D03*
X742750Y264100D02*
G54D11*
D03*
X717350Y289500D02*
G54D11*
D03*
X717350Y264100D02*
G54D11*
D03*
X691950Y289500D02*
G54D11*
D03*
X691950Y264100D02*
G54D11*
D03*
X666550Y289500D02*
G54D11*
D03*
X666550Y264100D02*
G54D11*
D03*
X641150Y289500D02*
G54D11*
D03*
X641150Y264100D02*
G54D11*
D03*
X615750Y289500D02*
G54D11*
D03*
X615750Y264100D02*
G54D11*
D03*
G36*
X679250Y1264500D02*
X679250Y1242500D01*
X657250Y1242500D01*
X657250Y1264500D01*
X679250Y1264500D01*
G37*
X668250Y1228100D02*
G54D10*
D03*
X668250Y1202700D02*
G54D10*
D03*
X668250Y1177300D02*
G54D10*
D03*
X668250Y1151900D02*
G54D10*
D03*
X668250Y1126500D02*
G54D10*
D03*
X668250Y1101100D02*
G54D10*
D03*
X668250Y1075700D02*
G54D10*
D03*
X668250Y1050300D02*
G54D10*
D03*
X668250Y1024900D02*
G54D10*
D03*
X744450Y1024900D02*
G54D10*
D03*
X744450Y1050300D02*
G54D10*
D03*
X744450Y1075700D02*
G54D10*
D03*
X744450Y1101100D02*
G54D10*
D03*
X744450Y1126500D02*
G54D10*
D03*
X744450Y1151900D02*
G54D10*
D03*
X744450Y1177300D02*
G54D10*
D03*
X744450Y1202700D02*
G54D10*
D03*
X744450Y1228100D02*
G54D10*
D03*
X744450Y1253500D02*
G54D10*
D03*
X604200Y1254750D02*
G54D10*
D03*
X604200Y1102350D02*
G54D10*
D03*
X528000Y1102350D02*
G54D10*
D03*
X528000Y1254750D02*
G54D10*
D03*
G36*
X334850Y1263934D02*
X334850Y1241934D01*
X312850Y1241934D01*
X312850Y1263934D01*
X334850Y1263934D01*
G37*
X323850Y1227534D02*
G54D10*
D03*
X323850Y1202134D02*
G54D10*
D03*
X323850Y1176734D02*
G54D10*
D03*
X323850Y1151334D02*
G54D10*
D03*
X323850Y1125934D02*
G54D10*
D03*
X323850Y1100534D02*
G54D10*
D03*
X323850Y1075134D02*
G54D10*
D03*
X323850Y1049734D02*
G54D10*
D03*
X323850Y1024334D02*
G54D10*
D03*
X323850Y998934D02*
G54D10*
D03*
X323850Y973534D02*
G54D10*
D03*
X323850Y948134D02*
G54D10*
D03*
X323850Y922734D02*
G54D10*
D03*
X323850Y897334D02*
G54D10*
D03*
X323850Y871934D02*
G54D10*
D03*
X323850Y846534D02*
G54D10*
D03*
X323850Y821134D02*
G54D10*
D03*
X323850Y795734D02*
G54D10*
D03*
X323850Y770334D02*
G54D10*
D03*
X476250Y770334D02*
G54D10*
D03*
X476250Y795734D02*
G54D10*
D03*
X476250Y821134D02*
G54D10*
D03*
X476250Y846534D02*
G54D10*
D03*
X476250Y871934D02*
G54D10*
D03*
X476250Y897334D02*
G54D10*
D03*
X476250Y922734D02*
G54D10*
D03*
X476250Y948134D02*
G54D10*
D03*
X476250Y973534D02*
G54D10*
D03*
X476250Y998934D02*
G54D10*
D03*
X476250Y1024334D02*
G54D10*
D03*
X476250Y1049734D02*
G54D10*
D03*
X476250Y1075134D02*
G54D10*
D03*
X476250Y1100534D02*
G54D10*
D03*
X476250Y1125934D02*
G54D10*
D03*
X476250Y1151334D02*
G54D10*
D03*
X476250Y1176734D02*
G54D10*
D03*
X476250Y1202134D02*
G54D10*
D03*
X476250Y1227534D02*
G54D10*
D03*
X476250Y1252934D02*
G54D10*
D03*
G36*
X953250Y261850D02*
X976250Y261850D01*
X976250Y238850D01*
X953250Y238850D01*
X953250Y261850D01*
G37*
X964750Y275750D02*
G54D11*
D03*
X990150Y250350D02*
G54D11*
D03*
X990150Y275750D02*
G54D11*
D03*
X1015550Y250350D02*
G54D11*
D03*
X1015550Y275750D02*
G54D11*
D03*
X1040950Y250350D02*
G54D11*
D03*
X1040950Y275750D02*
G54D11*
D03*
X1066350Y250350D02*
G54D11*
D03*
X1066350Y275750D02*
G54D11*
D03*
X1091750Y250350D02*
G54D11*
D03*
X1091750Y275750D02*
G54D11*
D03*
X1117150Y250350D02*
G54D11*
D03*
X1117150Y275750D02*
G54D11*
D03*
X1142550Y250350D02*
G54D11*
D03*
X1142550Y275750D02*
G54D11*
D03*
X1167950Y250350D02*
G54D11*
D03*
X1167950Y275750D02*
G54D11*
D03*
X1193350Y250350D02*
G54D11*
D03*
X1193350Y275750D02*
G54D11*
D03*
X1218750Y250350D02*
G54D11*
D03*
X1218750Y275750D02*
G54D11*
D03*
X1244150Y250350D02*
G54D11*
D03*
X1244150Y275750D02*
G54D11*
D03*
X1269550Y250350D02*
G54D11*
D03*
X1269550Y275750D02*
G54D11*
D03*
X1294950Y250350D02*
G54D11*
D03*
X1294950Y275750D02*
G54D11*
D03*
X1320350Y250350D02*
G54D11*
D03*
X1320350Y275750D02*
G54D11*
D03*
X1345750Y250350D02*
G54D11*
D03*
X1345750Y275750D02*
G54D11*
D03*
X1371150Y250350D02*
G54D11*
D03*
X1371150Y275750D02*
G54D11*
D03*
X1396550Y250350D02*
G54D11*
D03*
X1396550Y275750D02*
G54D11*
D03*
X1421950Y250350D02*
G54D11*
D03*
X1421950Y275750D02*
G54D11*
D03*
X1447350Y250350D02*
G54D11*
D03*
X1447350Y275750D02*
G54D11*
D03*
X1472750Y250350D02*
G54D11*
D03*
X1472750Y275750D02*
G54D11*
D03*
X1498150Y250350D02*
G54D11*
D03*
X1498150Y275750D02*
G54D11*
D03*
X1523550Y250350D02*
G54D11*
D03*
X1523550Y275750D02*
G54D11*
D03*
X1548950Y250350D02*
G54D11*
D03*
X1548950Y275750D02*
G54D11*
D03*
X1574350Y250350D02*
G54D11*
D03*
X1574350Y275750D02*
G54D11*
D03*
G36*
X928603Y357012D02*
X950603Y357012D01*
X950603Y335012D01*
X928603Y335012D01*
X928603Y357012D01*
G37*
X965003Y346012D02*
G54D10*
D03*
X990403Y346012D02*
G54D10*
D03*
X1015803Y346012D02*
G54D10*
D03*
X1041203Y346012D02*
G54D10*
D03*
X1066603Y346012D02*
G54D10*
D03*
X1092003Y346012D02*
G54D10*
D03*
X1117403Y346012D02*
G54D10*
D03*
X1142803Y346012D02*
G54D10*
D03*
X1168203Y346012D02*
G54D10*
D03*
X1193603Y346012D02*
G54D10*
D03*
X1219003Y346012D02*
G54D10*
D03*
X1244403Y346012D02*
G54D10*
D03*
X1269803Y346012D02*
G54D10*
D03*
X1295203Y346012D02*
G54D10*
D03*
X1320603Y346012D02*
G54D10*
D03*
X1346003Y346012D02*
G54D10*
D03*
X1371403Y346012D02*
G54D10*
D03*
X1396803Y346012D02*
G54D10*
D03*
X1422203Y346012D02*
G54D10*
D03*
X1422203Y498412D02*
G54D10*
D03*
X1396803Y498412D02*
G54D10*
D03*
X1371403Y498412D02*
G54D10*
D03*
X1346003Y498412D02*
G54D10*
D03*
X1320603Y498412D02*
G54D10*
D03*
X1295203Y498412D02*
G54D10*
D03*
X1269803Y498412D02*
G54D10*
D03*
X1244403Y498412D02*
G54D10*
D03*
X1219003Y498412D02*
G54D10*
D03*
X1193603Y498412D02*
G54D10*
D03*
X1168203Y498413D02*
G54D10*
D03*
X1142803Y498412D02*
G54D10*
D03*
X1117403Y498412D02*
G54D10*
D03*
X1092003Y498412D02*
G54D10*
D03*
X1066603Y498412D02*
G54D10*
D03*
X1041203Y498412D02*
G54D10*
D03*
X1015803Y498412D02*
G54D10*
D03*
X990403Y498412D02*
G54D10*
D03*
X965003Y498412D02*
G54D10*
D03*
X939603Y498412D02*
G54D10*
D03*
G36*
X1718703Y486206D02*
X1696703Y486206D01*
X1696703Y508206D01*
X1718703Y508206D01*
X1718703Y486206D01*
G37*
X1682303Y497206D02*
G54D10*
D03*
X1656903Y497206D02*
G54D10*
D03*
X1631503Y497206D02*
G54D10*
D03*
X1606103Y497206D02*
G54D10*
D03*
X1580703Y497206D02*
G54D10*
D03*
X1555303Y497206D02*
G54D10*
D03*
X1529903Y497206D02*
G54D10*
D03*
X1504503Y497206D02*
G54D10*
D03*
X1479103Y497206D02*
G54D10*
D03*
X1479103Y421006D02*
G54D10*
D03*
X1504503Y421006D02*
G54D10*
D03*
X1529903Y421006D02*
G54D10*
D03*
X1555303Y421006D02*
G54D10*
D03*
X1580703Y421006D02*
G54D10*
D03*
X1606103Y421006D02*
G54D10*
D03*
X1631503Y421006D02*
G54D10*
D03*
X1656903Y421006D02*
G54D10*
D03*
X1682303Y421006D02*
G54D10*
D03*
X1707703Y421006D02*
G54D10*
D03*
G36*
X2004453Y486206D02*
X1982453Y486206D01*
X1982453Y508206D01*
X2004453Y508206D01*
X2004453Y486206D01*
G37*
X1968053Y497206D02*
G54D10*
D03*
X1942653Y497206D02*
G54D10*
D03*
X1917253Y497206D02*
G54D10*
D03*
X1891853Y497206D02*
G54D10*
D03*
X1866453Y497206D02*
G54D10*
D03*
X1841053Y497206D02*
G54D10*
D03*
X1815653Y497206D02*
G54D10*
D03*
X1790253Y497206D02*
G54D10*
D03*
X1764853Y497206D02*
G54D10*
D03*
X1764853Y421006D02*
G54D10*
D03*
X1790253Y421006D02*
G54D10*
D03*
X1815653Y421006D02*
G54D10*
D03*
X1841053Y421006D02*
G54D10*
D03*
X1866453Y421006D02*
G54D10*
D03*
X1891853Y421006D02*
G54D10*
D03*
X1917253Y421006D02*
G54D10*
D03*
X1942653Y421006D02*
G54D10*
D03*
X1968053Y421006D02*
G54D10*
D03*
X1993453Y421006D02*
G54D10*
D03*
G36*
X2062050Y892062D02*
X2062050Y870062D01*
X2040050Y870062D01*
X2040050Y892062D01*
X2062050Y892062D01*
G37*
X2051050Y855662D02*
G54D10*
D03*
X2051050Y830262D02*
G54D10*
D03*
X2051050Y804862D02*
G54D10*
D03*
X2051050Y779462D02*
G54D10*
D03*
X2051050Y754062D02*
G54D10*
D03*
X2051050Y728662D02*
G54D10*
D03*
X2051050Y703262D02*
G54D10*
D03*
X2127251Y703262D02*
G54D10*
D03*
X2127251Y728662D02*
G54D10*
D03*
X2127251Y754062D02*
G54D10*
D03*
X2127251Y779462D02*
G54D10*
D03*
X2127251Y804862D02*
G54D10*
D03*
X2127251Y830262D02*
G54D10*
D03*
X2127251Y855662D02*
G54D10*
D03*
X2127251Y881062D02*
G54D10*
D03*
G36*
X1935050Y892062D02*
X1935050Y870062D01*
X1913050Y870062D01*
X1913050Y892062D01*
X1935050Y892062D01*
G37*
X1924050Y855662D02*
G54D10*
D03*
X1924050Y830262D02*
G54D10*
D03*
X1924050Y804863D02*
G54D10*
D03*
X1924050Y779463D02*
G54D10*
D03*
X1924050Y754062D02*
G54D10*
D03*
X1924050Y728662D02*
G54D10*
D03*
X1924050Y703262D02*
G54D10*
D03*
X2000250Y703262D02*
G54D10*
D03*
X2000250Y728662D02*
G54D10*
D03*
X2000250Y754062D02*
G54D10*
D03*
X2000250Y779462D02*
G54D10*
D03*
X2000250Y804862D02*
G54D10*
D03*
X2000250Y830262D02*
G54D10*
D03*
X2000250Y855662D02*
G54D10*
D03*
X2000250Y881062D02*
G54D10*
D03*
G36*
X1808050Y892062D02*
X1808050Y870062D01*
X1786050Y870062D01*
X1786050Y892062D01*
X1808050Y892062D01*
G37*
X1797050Y855662D02*
G54D10*
D03*
X1797050Y830262D02*
G54D10*
D03*
X1797050Y804862D02*
G54D10*
D03*
X1797050Y779462D02*
G54D10*
D03*
X1797050Y754062D02*
G54D10*
D03*
X1797050Y728662D02*
G54D10*
D03*
X1797050Y703262D02*
G54D10*
D03*
X1873250Y703262D02*
G54D10*
D03*
X1873250Y728662D02*
G54D10*
D03*
X1873250Y754062D02*
G54D10*
D03*
X1873250Y779462D02*
G54D10*
D03*
X1873250Y804862D02*
G54D10*
D03*
X1873250Y830262D02*
G54D10*
D03*
X1873250Y855662D02*
G54D10*
D03*
X1873250Y881062D02*
G54D10*
D03*
G36*
X1681050Y892062D02*
X1681050Y870062D01*
X1659050Y870062D01*
X1659050Y892062D01*
X1681050Y892062D01*
G37*
X1670050Y855663D02*
G54D10*
D03*
X1670050Y830262D02*
G54D10*
D03*
X1670050Y804862D02*
G54D10*
D03*
X1670050Y779462D02*
G54D10*
D03*
X1670050Y754062D02*
G54D10*
D03*
X1670050Y728662D02*
G54D10*
D03*
X1670050Y703262D02*
G54D10*
D03*
X1746250Y703262D02*
G54D10*
D03*
X1746250Y728662D02*
G54D12*
D03*
X1746250Y754062D02*
G54D10*
D03*
X1746250Y779463D02*
G54D10*
D03*
X1746250Y804862D02*
G54D10*
D03*
X1746250Y830263D02*
G54D10*
D03*
X1746250Y855662D02*
G54D10*
D03*
X1746250Y881062D02*
G54D10*
D03*
G36*
X1681447Y1070656D02*
X1681447Y1048656D01*
X1659447Y1048656D01*
X1659447Y1070656D01*
X1681447Y1070656D01*
G37*
X1670447Y1034256D02*
G54D10*
D03*
X1670447Y1008856D02*
G54D10*
D03*
X1670447Y983456D02*
G54D10*
D03*
X1746647Y983456D02*
G54D10*
D03*
X1746647Y1008856D02*
G54D10*
D03*
X1746647Y1034256D02*
G54D10*
D03*
X1746647Y1059656D02*
G54D10*
D03*
G36*
X1453244Y1262744D02*
X1453244Y1240744D01*
X1431244Y1240744D01*
X1431244Y1262744D01*
X1453244Y1262744D01*
G37*
X1442244Y1226344D02*
G54D10*
D03*
X1442244Y1200944D02*
G54D10*
D03*
X1442244Y1175544D02*
G54D10*
D03*
X1442244Y1150144D02*
G54D10*
D03*
X1442244Y1124744D02*
G54D10*
D03*
X1442244Y1099344D02*
G54D10*
D03*
X1442244Y1073944D02*
G54D10*
D03*
X1442244Y1048544D02*
G54D10*
D03*
X1442244Y1023144D02*
G54D10*
D03*
X1442244Y997744D02*
G54D10*
D03*
X1442244Y972344D02*
G54D10*
D03*
X1442244Y946944D02*
G54D10*
D03*
X1442244Y921544D02*
G54D10*
D03*
X1442244Y896144D02*
G54D10*
D03*
X1442244Y870744D02*
G54D10*
D03*
X1442244Y845344D02*
G54D10*
D03*
X1442244Y819944D02*
G54D10*
D03*
X1442244Y794544D02*
G54D10*
D03*
X1442244Y769144D02*
G54D10*
D03*
X1594644Y769144D02*
G54D10*
D03*
X1594644Y794544D02*
G54D10*
D03*
X1594644Y819944D02*
G54D10*
D03*
X1594644Y845344D02*
G54D10*
D03*
X1594644Y870744D02*
G54D10*
D03*
X1594644Y896144D02*
G54D10*
D03*
X1594644Y921544D02*
G54D10*
D03*
X1594644Y946944D02*
G54D10*
D03*
X1594644Y972344D02*
G54D10*
D03*
X1594644Y997744D02*
G54D10*
D03*
X1594644Y1023144D02*
G54D10*
D03*
X1594644Y1048544D02*
G54D10*
D03*
X1594644Y1073944D02*
G54D10*
D03*
X1594644Y1099344D02*
G54D10*
D03*
X1594644Y1124744D02*
G54D10*
D03*
X1594644Y1150144D02*
G54D10*
D03*
X1594644Y1175544D02*
G54D10*
D03*
X1594644Y1200944D02*
G54D10*
D03*
X1594644Y1226344D02*
G54D10*
D03*
X1594644Y1251744D02*
G54D10*
D03*
G36*
X1237741Y1263141D02*
X1237741Y1241141D01*
X1215741Y1241141D01*
X1215741Y1263141D01*
X1237741Y1263141D01*
G37*
X1226741Y1226741D02*
G54D10*
D03*
X1226741Y1201341D02*
G54D10*
D03*
X1226741Y1175941D02*
G54D10*
D03*
X1226741Y1150541D02*
G54D10*
D03*
X1226741Y1125141D02*
G54D10*
D03*
X1226741Y1099741D02*
G54D10*
D03*
X1226741Y1074341D02*
G54D10*
D03*
X1226741Y1048941D02*
G54D10*
D03*
X1226741Y1023541D02*
G54D10*
D03*
X1226741Y998141D02*
G54D10*
D03*
X1226741Y972741D02*
G54D10*
D03*
X1226741Y947341D02*
G54D10*
D03*
X1226741Y921941D02*
G54D10*
D03*
X1379141Y921941D02*
G54D10*
D03*
X1379141Y947341D02*
G54D10*
D03*
X1379141Y972741D02*
G54D10*
D03*
X1379141Y998141D02*
G54D10*
D03*
X1379141Y1023541D02*
G54D10*
D03*
X1379141Y1048941D02*
G54D10*
D03*
X1379141Y1074341D02*
G54D10*
D03*
X1379141Y1099741D02*
G54D10*
D03*
X1379141Y1125141D02*
G54D10*
D03*
X1379141Y1150541D02*
G54D10*
D03*
X1379141Y1175941D02*
G54D10*
D03*
X1379141Y1201341D02*
G54D10*
D03*
X1379141Y1226741D02*
G54D10*
D03*
X1379141Y1252141D02*
G54D10*
D03*
G36*
X1021841Y1263538D02*
X1021841Y1241538D01*
X999841Y1241538D01*
X999841Y1263538D01*
X1021841Y1263538D01*
G37*
X1010841Y1227138D02*
G54D10*
D03*
X1010841Y1201738D02*
G54D10*
D03*
X1010841Y1176338D02*
G54D10*
D03*
X1010841Y1150938D02*
G54D10*
D03*
X1010841Y1125538D02*
G54D10*
D03*
X1010841Y1100138D02*
G54D10*
D03*
X1010841Y1074738D02*
G54D10*
D03*
X1010841Y1049338D02*
G54D10*
D03*
X1010841Y1023938D02*
G54D10*
D03*
X1010841Y998538D02*
G54D10*
D03*
X1010841Y973138D02*
G54D10*
D03*
X1010841Y947738D02*
G54D10*
D03*
X1010841Y922337D02*
G54D10*
D03*
X1163241Y922338D02*
G54D10*
D03*
X1163241Y947738D02*
G54D10*
D03*
X1163241Y973138D02*
G54D10*
D03*
X1163241Y998538D02*
G54D10*
D03*
X1163241Y1023938D02*
G54D10*
D03*
X1163241Y1049338D02*
G54D10*
D03*
X1163241Y1074738D02*
G54D10*
D03*
X1163241Y1100138D02*
G54D10*
D03*
X1163241Y1125538D02*
G54D10*
D03*
X1163241Y1150938D02*
G54D10*
D03*
X1163241Y1176338D02*
G54D10*
D03*
X1163241Y1201738D02*
G54D10*
D03*
X1163241Y1227138D02*
G54D10*
D03*
X1163241Y1252538D02*
G54D10*
D03*
G36*
X805147Y1263934D02*
X805147Y1241934D01*
X783147Y1241934D01*
X783147Y1263934D01*
X805147Y1263934D01*
G37*
X794147Y1227534D02*
G54D10*
D03*
X794147Y1202134D02*
G54D10*
D03*
X794147Y1176734D02*
G54D10*
D03*
X794147Y1151334D02*
G54D10*
D03*
X794147Y1125934D02*
G54D10*
D03*
X794147Y1100534D02*
G54D10*
D03*
X794147Y1075134D02*
G54D10*
D03*
X794147Y1049734D02*
G54D10*
D03*
X794147Y1024334D02*
G54D10*
D03*
X794147Y998934D02*
G54D10*
D03*
X794147Y973534D02*
G54D10*
D03*
X794147Y948134D02*
G54D10*
D03*
X794147Y922734D02*
G54D10*
D03*
X946547Y922734D02*
G54D10*
D03*
X946547Y948134D02*
G54D10*
D03*
X946547Y973534D02*
G54D10*
D03*
X946547Y998934D02*
G54D10*
D03*
X946547Y1024334D02*
G54D10*
D03*
X946547Y1049734D02*
G54D10*
D03*
X946547Y1075134D02*
G54D10*
D03*
X946547Y1100534D02*
G54D10*
D03*
X946547Y1125934D02*
G54D10*
D03*
X946547Y1151334D02*
G54D10*
D03*
X946547Y1176734D02*
G54D10*
D03*
X946547Y1202134D02*
G54D10*
D03*
X946547Y1227534D02*
G54D10*
D03*
X946547Y1252934D02*
G54D10*
D03*
G36*
X538844Y1009934D02*
X538844Y987934D01*
X516844Y987934D01*
X516844Y1009934D01*
X538844Y1009934D01*
G37*
X527844Y973534D02*
G54D10*
D03*
X527844Y948134D02*
G54D10*
D03*
X527844Y922734D02*
G54D10*
D03*
X527844Y897334D02*
G54D10*
D03*
X527844Y871934D02*
G54D10*
D03*
X527844Y846534D02*
G54D10*
D03*
X527844Y821134D02*
G54D10*
D03*
X527844Y795734D02*
G54D10*
D03*
X604044Y795734D02*
G54D10*
D03*
X604044Y821134D02*
G54D10*
D03*
X604044Y846534D02*
G54D10*
D03*
X604044Y871934D02*
G54D10*
D03*
X604044Y897334D02*
G54D10*
D03*
X604044Y922734D02*
G54D10*
D03*
X604044Y948134D02*
G54D10*
D03*
X604044Y973534D02*
G54D10*
D03*
X604044Y998934D02*
G54D10*
D03*
G36*
X1948544Y1542938D02*
X1948544Y1520938D01*
X1926544Y1520938D01*
X1926544Y1542938D01*
X1948544Y1542938D01*
G37*
X1937544Y1506538D02*
G54D10*
D03*
X1937544Y1481138D02*
G54D10*
D03*
X1937544Y1455738D02*
G54D10*
D03*
X1937544Y1430338D02*
G54D10*
D03*
X1937544Y1404938D02*
G54D10*
D03*
X1937544Y1379538D02*
G54D10*
D03*
X1937544Y1354138D02*
G54D10*
D03*
X2013743Y1354138D02*
G54D10*
D03*
X2013743Y1379538D02*
G54D10*
D03*
X2013743Y1404938D02*
G54D10*
D03*
X2013743Y1430338D02*
G54D10*
D03*
X2013743Y1455738D02*
G54D10*
D03*
X2013743Y1481138D02*
G54D10*
D03*
X2013743Y1506538D02*
G54D10*
D03*
X2013743Y1531938D02*
G54D10*
D03*
G36*
X1948941Y1810431D02*
X1948941Y1788431D01*
X1926941Y1788431D01*
X1926941Y1810431D01*
X1948941Y1810431D01*
G37*
X1937941Y1774031D02*
G54D10*
D03*
X1937941Y1748631D02*
G54D10*
D03*
X1937941Y1723231D02*
G54D10*
D03*
X1937941Y1697831D02*
G54D10*
D03*
X1937941Y1672431D02*
G54D10*
D03*
X1937941Y1647031D02*
G54D10*
D03*
X1937941Y1621631D02*
G54D10*
D03*
X2014140Y1621631D02*
G54D10*
D03*
X2014140Y1647031D02*
G54D10*
D03*
X2014140Y1672431D02*
G54D10*
D03*
X2014140Y1697831D02*
G54D10*
D03*
X2014140Y1723231D02*
G54D10*
D03*
X2014140Y1748631D02*
G54D10*
D03*
X2014140Y1774031D02*
G54D10*
D03*
X2014140Y1799431D02*
G54D10*
D03*
G36*
X1683034Y1796369D02*
X1661034Y1796369D01*
X1661034Y1818369D01*
X1683034Y1818369D01*
X1683034Y1796369D01*
G37*
X1646634Y1807369D02*
G54D10*
D03*
X1621234Y1807369D02*
G54D10*
D03*
G36*
X413431Y1903300D02*
X413431Y1881300D01*
X391431Y1881300D01*
X391431Y1903300D01*
X413431Y1903300D01*
G37*
X402431Y1866900D02*
G54D10*
D03*
X402431Y1841500D02*
G54D10*
D03*
X402431Y1816100D02*
G54D10*
D03*
X402431Y1790700D02*
G54D10*
D03*
X402431Y1765300D02*
G54D10*
D03*
X402431Y1739900D02*
G54D10*
D03*
X402431Y1714500D02*
G54D10*
D03*
X402431Y1689100D02*
G54D10*
D03*
X402431Y1663700D02*
G54D10*
D03*
X478631Y1663700D02*
G54D10*
D03*
X478631Y1689100D02*
G54D10*
D03*
X478631Y1714500D02*
G54D10*
D03*
X478631Y1739900D02*
G54D10*
D03*
X478631Y1765300D02*
G54D10*
D03*
X478631Y1790700D02*
G54D10*
D03*
X478631Y1816100D02*
G54D10*
D03*
X478631Y1841500D02*
G54D10*
D03*
X478631Y1866900D02*
G54D10*
D03*
X478631Y1892300D02*
G54D10*
D03*
G36*
X286431Y1903300D02*
X286431Y1881300D01*
X264431Y1881300D01*
X264431Y1903300D01*
X286431Y1903300D01*
G37*
X275431Y1866900D02*
G54D10*
D03*
X275431Y1841500D02*
G54D10*
D03*
X275431Y1816100D02*
G54D10*
D03*
X275431Y1790700D02*
G54D10*
D03*
X275431Y1765300D02*
G54D10*
D03*
X275431Y1739900D02*
G54D10*
D03*
X275431Y1714500D02*
G54D10*
D03*
X275431Y1689100D02*
G54D10*
D03*
X275431Y1663700D02*
G54D10*
D03*
X351631Y1663700D02*
G54D10*
D03*
X351631Y1689100D02*
G54D10*
D03*
X351631Y1714500D02*
G54D10*
D03*
X351631Y1739900D02*
G54D10*
D03*
X351631Y1765300D02*
G54D10*
D03*
X351631Y1790700D02*
G54D10*
D03*
X351631Y1816100D02*
G54D10*
D03*
X351631Y1841500D02*
G54D10*
D03*
X351631Y1866900D02*
G54D10*
D03*
X351631Y1892300D02*
G54D10*
D03*
G36*
X577738Y1435212D02*
X555738Y1435212D01*
X555738Y1457212D01*
X577738Y1457212D01*
X577738Y1435212D01*
G37*
X592138Y1446212D02*
G54D10*
D03*
X617538Y1446212D02*
G54D10*
D03*
X642938Y1446212D02*
G54D10*
D03*
X668338Y1446212D02*
G54D10*
D03*
X693738Y1446212D02*
G54D10*
D03*
X719138Y1446212D02*
G54D10*
D03*
X744538Y1446212D02*
G54D10*
D03*
X769938Y1446212D02*
G54D10*
D03*
X795338Y1446212D02*
G54D10*
D03*
X820738Y1446212D02*
G54D10*
D03*
X846138Y1446212D02*
G54D10*
D03*
X871538Y1446212D02*
G54D10*
D03*
X896937Y1446212D02*
G54D10*
D03*
X922338Y1446212D02*
G54D10*
D03*
X947738Y1446212D02*
G54D10*
D03*
X973138Y1446212D02*
G54D10*
D03*
X998538Y1446212D02*
G54D10*
D03*
X1023938Y1446212D02*
G54D10*
D03*
X1049338Y1446212D02*
G54D10*
D03*
X1074738Y1446212D02*
G54D10*
D03*
X1100138Y1446212D02*
G54D10*
D03*
X1125538Y1446212D02*
G54D10*
D03*
X1150938Y1446212D02*
G54D10*
D03*
X1176338Y1446212D02*
G54D10*
D03*
X1201738Y1446212D02*
G54D10*
D03*
X1227138Y1446212D02*
G54D10*
D03*
X1252538Y1446212D02*
G54D10*
D03*
X1277938Y1446212D02*
G54D10*
D03*
X1303338Y1446212D02*
G54D10*
D03*
X1328738Y1446212D02*
G54D10*
D03*
X566738Y1674812D02*
G54D10*
D03*
X592138Y1674812D02*
G54D10*
D03*
X617538Y1674812D02*
G54D10*
D03*
X642938Y1674812D02*
G54D10*
D03*
X668338Y1674812D02*
G54D10*
D03*
X693738Y1674812D02*
G54D10*
D03*
X744538Y1674812D02*
G54D10*
D03*
X719138Y1674812D02*
G54D10*
D03*
X769938Y1674812D02*
G54D10*
D03*
X795338Y1674812D02*
G54D10*
D03*
X820738Y1674812D02*
G54D10*
D03*
X846137Y1674812D02*
G54D10*
D03*
X871538Y1674812D02*
G54D10*
D03*
X896938Y1674812D02*
G54D10*
D03*
X922338Y1674812D02*
G54D10*
D03*
X947738Y1674812D02*
G54D10*
D03*
X973138Y1674812D02*
G54D10*
D03*
X998538Y1674812D02*
G54D10*
D03*
X1023938Y1674812D02*
G54D10*
D03*
X1049338Y1674812D02*
G54D10*
D03*
X1074738Y1674812D02*
G54D10*
D03*
X1100138Y1674812D02*
G54D10*
D03*
X1125538Y1674812D02*
G54D10*
D03*
X1150938Y1674812D02*
G54D10*
D03*
X1176338Y1674812D02*
G54D10*
D03*
X1201738Y1674812D02*
G54D10*
D03*
X1227138Y1674812D02*
G54D10*
D03*
X1252538Y1674812D02*
G54D10*
D03*
X1277938Y1674812D02*
G54D10*
D03*
X1303338Y1674812D02*
G54D10*
D03*
X1328738Y1674812D02*
G54D10*
D03*
X1354138Y1674812D02*
G54D10*
D03*
X1354138Y1446212D02*
G54D10*
D03*
G36*
X72138Y1893188D02*
X96138Y1893188D01*
X96138Y1869188D01*
X72138Y1869188D01*
X72138Y1893188D01*
G37*
G36*
X97537Y1893187D02*
X121537Y1893187D01*
X121537Y1869187D01*
X97537Y1869187D01*
X97537Y1893187D01*
G37*
G36*
X122938Y1893188D02*
X146938Y1893188D01*
X146938Y1869188D01*
X122938Y1869188D01*
X122938Y1893188D01*
G37*
X84138Y1855788D02*
G54D13*
D03*
X84138Y1830388D02*
G54D13*
D03*
X84138Y1804988D02*
G54D13*
D03*
X84138Y1779588D02*
G54D13*
D03*
X84138Y1754188D02*
G54D13*
D03*
X84138Y1728788D02*
G54D13*
D03*
X84138Y1703388D02*
G54D13*
D03*
X84138Y1652588D02*
G54D13*
D03*
X84138Y1677988D02*
G54D13*
D03*
X84138Y1627188D02*
G54D13*
D03*
X84138Y1601788D02*
G54D13*
D03*
X84138Y1576388D02*
G54D13*
D03*
X84138Y1550988D02*
G54D13*
D03*
X84138Y1525588D02*
G54D13*
D03*
X84138Y1500188D02*
G54D13*
D03*
X84138Y1474788D02*
G54D13*
D03*
X84138Y1449388D02*
G54D13*
D03*
X84138Y1423988D02*
G54D13*
D03*
X84138Y1398588D02*
G54D13*
D03*
X84138Y1373188D02*
G54D13*
D03*
X84138Y1347788D02*
G54D13*
D03*
X84138Y1322388D02*
G54D13*
D03*
X84138Y1296988D02*
G54D13*
D03*
X84138Y1271588D02*
G54D13*
D03*
X84138Y1246188D02*
G54D13*
D03*
X84138Y1220788D02*
G54D13*
D03*
X84138Y1195388D02*
G54D13*
D03*
X84138Y1169988D02*
G54D13*
D03*
X84137Y1144587D02*
G54D13*
D03*
X84138Y1119188D02*
G54D13*
D03*
X84138Y1093788D02*
G54D13*
D03*
X109537Y1855788D02*
G54D13*
D03*
X109537Y1830388D02*
G54D13*
D03*
X109537Y1804987D02*
G54D13*
D03*
X109537Y1779588D02*
G54D13*
D03*
X109537Y1754187D02*
G54D13*
D03*
X109537Y1728788D02*
G54D13*
D03*
X109537Y1703387D02*
G54D13*
D03*
X109537Y1677988D02*
G54D13*
D03*
X109538Y1652588D02*
G54D13*
D03*
X109538Y1627188D02*
G54D13*
D03*
X109538Y1601788D02*
G54D13*
D03*
X109537Y1576387D02*
G54D13*
D03*
X109537Y1550988D02*
G54D13*
D03*
X109537Y1525587D02*
G54D13*
D03*
X109537Y1500188D02*
G54D13*
D03*
X109537Y1474787D02*
G54D13*
D03*
X109538Y1449388D02*
G54D13*
D03*
X109538Y1423988D02*
G54D13*
D03*
X109538Y1398588D02*
G54D13*
D03*
X109538Y1373188D02*
G54D13*
D03*
X109538Y1347788D02*
G54D13*
D03*
X109538Y1322388D02*
G54D13*
D03*
X109538Y1296988D02*
G54D13*
D03*
X109538Y1271588D02*
G54D13*
D03*
X109538Y1246188D02*
G54D13*
D03*
X109538Y1220788D02*
G54D13*
D03*
X109538Y1195388D02*
G54D13*
D03*
X109537Y1169987D02*
G54D13*
D03*
X109538Y1144588D02*
G54D13*
D03*
X109538Y1119188D02*
G54D13*
D03*
X109538Y1093788D02*
G54D13*
D03*
X134938Y1855788D02*
G54D13*
D03*
X134938Y1830388D02*
G54D13*
D03*
X134938Y1804988D02*
G54D13*
D03*
X134938Y1779588D02*
G54D13*
D03*
X134938Y1754188D02*
G54D13*
D03*
X134938Y1728788D02*
G54D13*
D03*
X134938Y1703388D02*
G54D13*
D03*
X134938Y1677988D02*
G54D13*
D03*
X134938Y1652588D02*
G54D13*
D03*
X134938Y1627188D02*
G54D13*
D03*
X134938Y1601788D02*
G54D13*
D03*
X134937Y1576387D02*
G54D13*
D03*
X134938Y1550988D02*
G54D13*
D03*
X134938Y1525588D02*
G54D13*
D03*
X134938Y1500188D02*
G54D13*
D03*
X134938Y1474788D02*
G54D13*
D03*
X134938Y1449388D02*
G54D13*
D03*
X134938Y1423988D02*
G54D13*
D03*
X134938Y1398588D02*
G54D13*
D03*
X134938Y1373188D02*
G54D13*
D03*
X134938Y1347788D02*
G54D13*
D03*
X134938Y1322388D02*
G54D13*
D03*
X134938Y1296988D02*
G54D13*
D03*
X134938Y1271588D02*
G54D13*
D03*
X134938Y1246188D02*
G54D13*
D03*
X134938Y1220788D02*
G54D13*
D03*
X134938Y1195388D02*
G54D13*
D03*
X134938Y1169988D02*
G54D13*
D03*
X134937Y1144587D02*
G54D13*
D03*
X134938Y1119188D02*
G54D13*
D03*
X134938Y1093788D02*
G54D13*
D03*
X1544638Y1519238D02*
G54D10*
D03*
X1544638Y1544638D02*
G54D10*
D03*
X1544637Y1570038D02*
G54D10*
D03*
X1544638Y1595438D02*
G54D10*
D03*
X1722437Y1671638D02*
G54D10*
D03*
X1747837Y1671638D02*
G54D10*
D03*
X1570038Y1697038D02*
G54D10*
D03*
X1544638Y1671638D02*
G54D10*
D03*
X1595438Y1671638D02*
G54D10*
D03*
X1519238Y1671638D02*
G54D10*
D03*
X1519238Y1595438D02*
G54D10*
D03*
X1544638Y1697038D02*
G54D10*
D03*
X1519238Y1570038D02*
G54D10*
D03*
X1595438Y1697038D02*
G54D10*
D03*
X1519238Y1544637D02*
G54D10*
D03*
X1519238Y1519238D02*
G54D10*
D03*
X1544638Y1417638D02*
G54D10*
D03*
X1544638Y1443038D02*
G54D10*
D03*
X1544638Y1468438D02*
G54D10*
D03*
X1544638Y1493838D02*
G54D10*
D03*
X1798637Y1493838D02*
G54D10*
D03*
X1798637Y1519238D02*
G54D10*
D03*
X1519238Y1493838D02*
G54D10*
D03*
X1519238Y1468438D02*
G54D10*
D03*
X1519238Y1443038D02*
G54D10*
D03*
X1519238Y1417638D02*
G54D10*
D03*
X1570038Y1671638D02*
G54D10*
D03*
X1620838Y1671638D02*
G54D10*
D03*
X1646237Y1671638D02*
G54D10*
D03*
X1620838Y1697038D02*
G54D10*
D03*
X1671637Y1671638D02*
G54D10*
D03*
X1697037Y1671638D02*
G54D10*
D03*
X1722437Y1697038D02*
G54D10*
D03*
X1747837Y1697038D02*
G54D10*
D03*
X1646237Y1697038D02*
G54D10*
D03*
X1671637Y1697038D02*
G54D10*
D03*
X1697037Y1697038D02*
G54D10*
D03*
X1570038Y1392238D02*
G54D10*
D03*
X1544638Y1392238D02*
G54D10*
D03*
X1595438Y1392238D02*
G54D10*
D03*
X1620838Y1392238D02*
G54D10*
D03*
X1722437Y1392238D02*
G54D10*
D03*
X1747837Y1392238D02*
G54D10*
D03*
X1646237Y1392238D02*
G54D10*
D03*
X1671637Y1392238D02*
G54D10*
D03*
X1697037Y1392238D02*
G54D10*
D03*
X1722437Y1417638D02*
G54D10*
D03*
X1747837Y1417638D02*
G54D10*
D03*
X1595438Y1417638D02*
G54D10*
D03*
X1570038Y1417638D02*
G54D10*
D03*
X1620838Y1417638D02*
G54D10*
D03*
X1646237Y1417637D02*
G54D10*
D03*
X1671637Y1417638D02*
G54D10*
D03*
X1697037Y1417638D02*
G54D10*
D03*
X1798637Y1468438D02*
G54D10*
D03*
X1798637Y1570038D02*
G54D10*
D03*
X1798637Y1595438D02*
G54D10*
D03*
X1798637Y1620838D02*
G54D10*
D03*
X1798637Y1646238D02*
G54D10*
D03*
X1798637Y1544638D02*
G54D10*
D03*
X1773237Y1671638D02*
G54D10*
D03*
X1798637Y1671638D02*
G54D10*
D03*
X1773237Y1697038D02*
G54D10*
D03*
X1798637Y1697038D02*
G54D10*
D03*
X1773237Y1392238D02*
G54D10*
D03*
X1798637Y1392238D02*
G54D10*
D03*
X1798637Y1443038D02*
G54D10*
D03*
X1773237Y1417638D02*
G54D10*
D03*
X1798637Y1417638D02*
G54D10*
D03*
X1824037Y1646238D02*
G54D10*
D03*
X1824037Y1671638D02*
G54D10*
D03*
X1824037Y1620838D02*
G54D10*
D03*
X1824037Y1595438D02*
G54D10*
D03*
X1824037Y1493838D02*
G54D10*
D03*
X1824037Y1468438D02*
G54D10*
D03*
X1824037Y1570038D02*
G54D10*
D03*
X1824037Y1544637D02*
G54D10*
D03*
X1824037Y1519238D02*
G54D10*
D03*
X1824037Y1443038D02*
G54D10*
D03*
X1824037Y1417638D02*
G54D10*
D03*
X1544638Y1620838D02*
G54D10*
D03*
X1544638Y1646238D02*
G54D10*
D03*
X1519238Y1646238D02*
G54D10*
D03*
X1519238Y1620838D02*
G54D10*
D03*
G36*
X2054338Y1635238D02*
X2054338Y1657238D01*
X2076338Y1657238D01*
X2076338Y1635238D01*
X2054338Y1635238D01*
G37*
X2065338Y1671638D02*
G54D10*
D03*
X2065338Y1697038D02*
G54D10*
D03*
X2065338Y1722438D02*
G54D10*
D03*
X2065338Y1747838D02*
G54D10*
D03*
X2065338Y1773238D02*
G54D10*
D03*
X2065338Y1798638D02*
G54D10*
D03*
X2065338Y1824038D02*
G54D10*
D03*
X2065338Y1849438D02*
G54D10*
D03*
X2065338Y1874838D02*
G54D10*
D03*
G36*
X2054338Y1343138D02*
X2054338Y1365138D01*
X2076338Y1365138D01*
X2076338Y1343138D01*
X2054338Y1343138D01*
G37*
X2065338Y1379538D02*
G54D10*
D03*
X2065338Y1404938D02*
G54D10*
D03*
X2065338Y1430338D02*
G54D10*
D03*
X2065338Y1455738D02*
G54D10*
D03*
X2065338Y1481138D02*
G54D10*
D03*
X2065338Y1506538D02*
G54D10*
D03*
X2065338Y1531938D02*
G54D10*
D03*
X2065338Y1557338D02*
G54D10*
D03*
X2065338Y1582738D02*
G54D10*
D03*
G36*
X1414350Y635112D02*
X1392350Y635112D01*
X1392350Y657112D01*
X1414350Y657112D01*
X1414350Y635112D01*
G37*
X1403350Y620713D02*
G54D14*
D03*
G36*
X1011875Y2186937D02*
X988375Y2186937D01*
X988375Y2210437D01*
X1011875Y2210437D01*
X1011875Y2186937D01*
G37*
X974725Y2198688D02*
G54D15*
D03*
X949325Y2198688D02*
G54D15*
D03*
X923925Y2198688D02*
G54D15*
D03*
X898525Y2198688D02*
G54D15*
D03*
X873125Y2198688D02*
G54D15*
D03*
X847725Y2198688D02*
G54D15*
D03*
X822325Y2198688D02*
G54D15*
D03*
X796925Y2198687D02*
G54D15*
D03*
X771525Y2198688D02*
G54D15*
D03*
X746125Y2198688D02*
G54D15*
D03*
X720725Y2198688D02*
G54D15*
D03*
X695325Y2198688D02*
G54D15*
D03*
X669925Y2198688D02*
G54D15*
D03*
X644525Y2198688D02*
G54D15*
D03*
X619125Y2198688D02*
G54D15*
D03*
X593725Y2198688D02*
G54D15*
D03*
X568325Y2198688D02*
G54D15*
D03*
X542925Y2198688D02*
G54D15*
D03*
X517525Y2198688D02*
G54D15*
D03*
X492125Y2198688D02*
G54D15*
D03*
X466725Y2198687D02*
G54D15*
D03*
X441325Y2198688D02*
G54D15*
D03*
X415925Y2198688D02*
G54D15*
D03*
X390525Y2198688D02*
G54D15*
D03*
X365125Y2198688D02*
G54D15*
D03*
X339725Y2198688D02*
G54D15*
D03*
X314325Y2198688D02*
G54D15*
D03*
X288925Y2198688D02*
G54D15*
D03*
X263525Y2198687D02*
G54D15*
D03*
G36*
X1011875Y2059937D02*
X988375Y2059937D01*
X988375Y2083437D01*
X1011875Y2083437D01*
X1011875Y2059937D01*
G37*
X974725Y2071688D02*
G54D15*
D03*
X949325Y2071688D02*
G54D15*
D03*
X923925Y2071688D02*
G54D15*
D03*
X898525Y2071688D02*
G54D15*
D03*
X873125Y2071688D02*
G54D15*
D03*
X847725Y2071688D02*
G54D15*
D03*
X822325Y2071688D02*
G54D15*
D03*
X796925Y2071687D02*
G54D15*
D03*
X771525Y2071688D02*
G54D15*
D03*
X746125Y2071688D02*
G54D15*
D03*
X720725Y2071688D02*
G54D15*
D03*
X695325Y2071688D02*
G54D15*
D03*
X669925Y2071688D02*
G54D15*
D03*
X644525Y2071688D02*
G54D15*
D03*
X619125Y2071688D02*
G54D15*
D03*
X593725Y2071688D02*
G54D15*
D03*
X568325Y2071688D02*
G54D15*
D03*
X542925Y2071688D02*
G54D15*
D03*
X517525Y2071688D02*
G54D15*
D03*
X492125Y2071688D02*
G54D15*
D03*
X466725Y2071687D02*
G54D15*
D03*
X441325Y2071688D02*
G54D15*
D03*
X415925Y2071688D02*
G54D15*
D03*
X390525Y2071688D02*
G54D15*
D03*
X365125Y2071688D02*
G54D15*
D03*
X339725Y2071688D02*
G54D15*
D03*
X314325Y2071688D02*
G54D15*
D03*
X288925Y2071688D02*
G54D15*
D03*
X263525Y2071687D02*
G54D15*
D03*
G36*
X2013587Y2183763D02*
X1990087Y2183763D01*
X1990087Y2207263D01*
X2013587Y2207263D01*
X2013587Y2183763D01*
G37*
X1976437Y2195512D02*
G54D15*
D03*
X1951037Y2195512D02*
G54D15*
D03*
X1925637Y2195512D02*
G54D15*
D03*
X1900237Y2195512D02*
G54D15*
D03*
X1874837Y2195512D02*
G54D15*
D03*
X1849437Y2195512D02*
G54D15*
D03*
X1824037Y2195512D02*
G54D15*
D03*
X1798637Y2195513D02*
G54D15*
D03*
X1773237Y2195512D02*
G54D15*
D03*
X1747837Y2195512D02*
G54D15*
D03*
X1722437Y2195512D02*
G54D15*
D03*
X1697037Y2195512D02*
G54D15*
D03*
X1671637Y2195512D02*
G54D15*
D03*
X1646237Y2195512D02*
G54D15*
D03*
X1620837Y2195512D02*
G54D15*
D03*
X1595437Y2195512D02*
G54D15*
D03*
X1570037Y2195512D02*
G54D15*
D03*
X1544637Y2195512D02*
G54D15*
D03*
X1519237Y2195512D02*
G54D15*
D03*
X1493837Y2195512D02*
G54D15*
D03*
X1468438Y2195512D02*
G54D15*
D03*
X1443038Y2195512D02*
G54D15*
D03*
X1417637Y2195513D02*
G54D15*
D03*
X1392238Y2195512D02*
G54D15*
D03*
X1366838Y2195512D02*
G54D15*
D03*
X1341438Y2195512D02*
G54D15*
D03*
X1316038Y2195512D02*
G54D15*
D03*
X1290638Y2195512D02*
G54D15*
D03*
X1265238Y2195513D02*
G54D15*
D03*
G36*
X2013587Y2056763D02*
X1990087Y2056763D01*
X1990087Y2080263D01*
X2013587Y2080263D01*
X2013587Y2056763D01*
G37*
X1976437Y2068512D02*
G54D15*
D03*
X1951037Y2068512D02*
G54D15*
D03*
X1925637Y2068512D02*
G54D15*
D03*
X1900237Y2068512D02*
G54D15*
D03*
X1874837Y2068512D02*
G54D15*
D03*
X1849437Y2068512D02*
G54D15*
D03*
X1824037Y2068512D02*
G54D15*
D03*
X1798637Y2068513D02*
G54D15*
D03*
X1773237Y2068512D02*
G54D15*
D03*
X1747837Y2068512D02*
G54D15*
D03*
X1722437Y2068512D02*
G54D15*
D03*
X1697037Y2068512D02*
G54D15*
D03*
X1671637Y2068512D02*
G54D15*
D03*
X1646237Y2068512D02*
G54D15*
D03*
X1620837Y2068512D02*
G54D15*
D03*
X1595437Y2068512D02*
G54D15*
D03*
X1570037Y2068512D02*
G54D15*
D03*
X1544637Y2068512D02*
G54D15*
D03*
X1519237Y2068512D02*
G54D15*
D03*
X1493837Y2068512D02*
G54D15*
D03*
X1468438Y2068513D02*
G54D15*
D03*
X1443038Y2068512D02*
G54D15*
D03*
X1417638Y2068512D02*
G54D15*
D03*
X1392238Y2068512D02*
G54D15*
D03*
X1366838Y2068512D02*
G54D15*
D03*
X1341438Y2068512D02*
G54D15*
D03*
X1316038Y2068512D02*
G54D15*
D03*
X1290638Y2068512D02*
G54D15*
D03*
X1265238Y2068513D02*
G54D15*
D03*
X1847850Y650875D02*
G54D10*
D03*
X1949450Y650875D02*
G54D10*
D03*
X1993900Y560388D02*
G54D10*
D03*
X2120900Y560387D02*
G54D10*
D03*
X1993900Y598488D02*
G54D10*
D03*
X2120900Y598488D02*
G54D10*
D03*
X1993900Y630238D02*
G54D10*
D03*
X2120900Y630238D02*
G54D10*
D03*
X1993900Y661988D02*
G54D10*
D03*
X2120900Y661988D02*
G54D10*
D03*
X1834356Y613569D02*
G54D10*
D03*
X1961356Y613569D02*
G54D10*
D03*
X1834356Y561975D02*
G54D10*
D03*
X1961356Y561975D02*
G54D10*
D03*
X1891506Y388937D02*
G54D10*
D03*
X1993106Y388938D02*
G54D10*
D03*
X1891506Y344487D02*
G54D10*
D03*
X1993106Y344488D02*
G54D10*
D03*
X1763712Y388937D02*
G54D10*
D03*
X1865312Y388937D02*
G54D10*
D03*
X1612106Y376238D02*
G54D10*
D03*
X1739106Y376237D02*
G54D10*
D03*
X1213644Y774700D02*
G54D10*
D03*
X1340644Y774700D02*
G54D10*
D03*
X1213644Y812800D02*
G54D10*
D03*
X1340644Y812800D02*
G54D10*
D03*
X1218406Y742156D02*
G54D10*
D03*
X1320006Y742156D02*
G54D10*
D03*
X1250950Y850900D02*
G54D10*
D03*
X1352550Y850900D02*
G54D10*
D03*
X1035050Y850900D02*
G54D10*
D03*
X1136650Y850900D02*
G54D10*
D03*
X819150Y850900D02*
G54D10*
D03*
X920750Y850900D02*
G54D10*
D03*
X850900Y666750D02*
G54D10*
D03*
X952500Y666750D02*
G54D10*
D03*
X723900Y666750D02*
G54D10*
D03*
X825500Y666750D02*
G54D10*
D03*
X1022350Y812800D02*
G54D10*
D03*
X1149350Y812800D02*
G54D10*
D03*
X819150Y812800D02*
G54D10*
D03*
X946150Y812800D02*
G54D10*
D03*
X819150Y774700D02*
G54D10*
D03*
X946150Y774700D02*
G54D10*
D03*
X584994Y692944D02*
G54D10*
D03*
X686594Y692944D02*
G54D10*
D03*
X349250Y719137D02*
G54D10*
D03*
X450850Y719138D02*
G54D10*
D03*
X272256Y533400D02*
G54D10*
D03*
X373856Y533400D02*
G54D10*
D03*
X629444Y941388D02*
G54D10*
D03*
X756444Y941387D02*
G54D10*
D03*
X629444Y902494D02*
G54D10*
D03*
X756444Y902494D02*
G54D10*
D03*
X654844Y979488D02*
G54D10*
D03*
X756444Y979488D02*
G54D10*
D03*
X165894Y986631D02*
G54D10*
D03*
X267494Y986631D02*
G54D10*
D03*
X121444Y871537D02*
G54D10*
D03*
X248444Y871538D02*
G54D10*
D03*
X121444Y833438D02*
G54D10*
D03*
X248444Y833438D02*
G54D10*
D03*
X121444Y795338D02*
G54D10*
D03*
X248444Y795338D02*
G54D10*
D03*
X1771650Y970756D02*
G54D10*
D03*
X1898650Y970756D02*
G54D10*
D03*
X1771650Y1053306D02*
G54D10*
D03*
X1898650Y1053306D02*
G54D10*
D03*
X1778000Y1111250D02*
G54D10*
D03*
X1905000Y1111250D02*
G54D10*
D03*
X1778794Y1245394D02*
G54D10*
D03*
X1880394Y1245394D02*
G54D10*
D03*
X1632744Y1245394D02*
G54D10*
D03*
X1734344Y1245394D02*
G54D10*
D03*
X1651000Y1111250D02*
G54D10*
D03*
X1752600Y1111250D02*
G54D10*
D03*
X1765300Y1283494D02*
G54D10*
D03*
X1892300Y1283494D02*
G54D10*
D03*
X1765300Y1321594D02*
G54D10*
D03*
X1892300Y1321594D02*
G54D10*
D03*
X1924050Y1309688D02*
G54D10*
D03*
X2025650Y1309688D02*
G54D10*
D03*
X1639094Y1335087D02*
G54D10*
D03*
X1740694Y1335087D02*
G54D10*
D03*
X1613694Y1296194D02*
G54D10*
D03*
X1740694Y1296194D02*
G54D10*
D03*
X1454944Y1296194D02*
G54D10*
D03*
X1581944Y1296194D02*
G54D10*
D03*
X1454944Y1335088D02*
G54D10*
D03*
X1581944Y1335088D02*
G54D10*
D03*
X1924844Y1576387D02*
G54D10*
D03*
X2026443Y1576387D02*
G54D10*
D03*
X1245394Y1297781D02*
G54D10*
D03*
X1346994Y1297781D02*
G54D10*
D03*
X1035050Y1297781D02*
G54D10*
D03*
X1136650Y1297781D02*
G54D10*
D03*
X896144Y1297781D02*
G54D10*
D03*
X997744Y1297781D02*
G54D10*
D03*
X756444Y1297781D02*
G54D10*
D03*
X858044Y1297781D02*
G54D10*
D03*
X629444Y1297781D02*
G54D10*
D03*
X731044Y1297781D02*
G54D10*
D03*
X489744Y1297781D02*
G54D10*
D03*
X591344Y1297781D02*
G54D10*
D03*
X324644Y1299369D02*
G54D10*
D03*
X451644Y1299369D02*
G54D10*
D03*
X465138Y1362869D02*
G54D10*
D03*
X592138Y1362869D02*
G54D10*
D03*
X636588Y1362869D02*
G54D10*
D03*
X763588Y1362869D02*
G54D10*
D03*
X807244Y1362869D02*
G54D10*
D03*
X908844Y1362869D02*
G54D10*
D03*
X947738Y1362869D02*
G54D10*
D03*
X1074737Y1362869D02*
G54D10*
D03*
X1125538Y1360488D02*
G54D10*
D03*
X1252538Y1360488D02*
G54D10*
D03*
X1125538Y1399381D02*
G54D10*
D03*
X1252538Y1399381D02*
G54D10*
D03*
X1277938Y1399381D02*
G54D10*
D03*
X1404937Y1399381D02*
G54D10*
D03*
X1277938Y1360488D02*
G54D10*
D03*
X1404938Y1360488D02*
G54D10*
D03*
X1038025Y657712D02*
G54D16*
D03*
X1080025Y657712D02*
G54D16*
D03*
X1122025Y657712D02*
G54D16*
D03*
X1164025Y657712D02*
G54D16*
D03*
X1206025Y657712D02*
G54D16*
D03*
X1248025Y657712D02*
G54D16*
D03*
X1290025Y657712D02*
G54D16*
D03*
X1038025Y602150D02*
G54D16*
D03*
X1080025Y602150D02*
G54D16*
D03*
X1122025Y602150D02*
G54D16*
D03*
X1164025Y602150D02*
G54D16*
D03*
X1206025Y602150D02*
G54D16*
D03*
X1248025Y602150D02*
G54D16*
D03*
X1290025Y602150D02*
G54D16*
D03*
X1409700Y708025D02*
G54D17*
D03*
X1619700Y708025D02*
G54D17*
D03*
X963613Y722312D02*
G54D17*
D03*
X1173612Y722312D02*
G54D17*
D03*
X57150Y930275D02*
G54D17*
D03*
X267150Y930275D02*
G54D17*
D03*
X203200Y706438D02*
G54D17*
D03*
X228600Y706438D02*
G54D17*
D03*
G36*
X164800Y719438D02*
X190800Y719438D01*
X190800Y693438D01*
X164800Y693438D01*
X164800Y719438D01*
G37*
X679450Y635000D02*
G54D10*
D03*
X679450Y660400D02*
G54D10*
D03*
X723900Y609600D02*
G54D17*
D03*
X933900Y609600D02*
G54D17*
D03*
X1352550Y581819D02*
G54D10*
D03*
X1454150Y581819D02*
G54D10*
D03*
X279400Y361156D02*
G54D10*
D03*
X381000Y361156D02*
G54D10*
D03*
X279400Y329406D02*
G54D10*
D03*
X381000Y329406D02*
G54D10*
D03*
X279400Y296862D02*
G54D10*
D03*
X381000Y296863D02*
G54D10*
D03*
X1624806Y324644D02*
G54D17*
D03*
X1834806Y324644D02*
G54D17*
D03*
X325438Y1612106D02*
G54D10*
D03*
X427038Y1612106D02*
G54D10*
D03*
X566738Y1739106D02*
G54D10*
D03*
X668337Y1739106D02*
G54D10*
D03*
X1485106Y376237D02*
G54D10*
D03*
X1586706Y376237D02*
G54D10*
D03*
X1472406Y338931D02*
G54D10*
D03*
X1599406Y338931D02*
G54D10*
D03*
X1925638Y989013D02*
G54D17*
D03*
X2135638Y989012D02*
G54D17*
D03*
X1925638Y1066006D02*
G54D17*
D03*
X2135638Y1066006D02*
G54D17*
D03*
X1925638Y1181894D02*
G54D17*
D03*
X2135638Y1181894D02*
G54D17*
D03*
X1925637Y1258094D02*
G54D17*
D03*
X2135637Y1258094D02*
G54D17*
D03*
X1670394Y1181894D02*
G54D17*
D03*
X1880394Y1181894D02*
G54D17*
D03*
X1784350Y1015206D02*
G54D10*
D03*
X1885950Y1015206D02*
G54D10*
D03*
X2038350Y925512D02*
G54D10*
D03*
X2139950Y925512D02*
G54D10*
D03*
X1911350Y925512D02*
G54D10*
D03*
X2012950Y925512D02*
G54D10*
D03*
X1785144Y925512D02*
G54D10*
D03*
X1886744Y925512D02*
G54D10*
D03*
X1657350Y925512D02*
G54D10*
D03*
X1758950Y925512D02*
G54D10*
D03*
X2132806Y464344D02*
G54D17*
D03*
X2132806Y413501D02*
G54D17*
D03*
X2132806Y330994D02*
G54D17*
D03*
X2132806Y280151D02*
G54D17*
D03*
X1816100Y593725D02*
G54D18*
D03*
X1445162Y127388D02*
G54D11*
D03*
X1417462Y127388D02*
G54D11*
D03*
X1389762Y127388D02*
G54D11*
D03*
X1362062Y127388D02*
G54D11*
D03*
X1334362Y127388D02*
G54D11*
D03*
X1306662Y127388D02*
G54D11*
D03*
X1278962Y127388D02*
G54D11*
D03*
X1251263Y127388D02*
G54D11*
D03*
X1223562Y127388D02*
G54D11*
D03*
X1195862Y127388D02*
G54D11*
D03*
X1168162Y127388D02*
G54D11*
D03*
X1140462Y127388D02*
G54D11*
D03*
G36*
X1461362Y138888D02*
X1484362Y138888D01*
X1484362Y115888D01*
X1461362Y115888D01*
X1461362Y138888D01*
G37*
X1459450Y100562D02*
G54D11*
D03*
X1431750Y100562D02*
G54D11*
D03*
X1404050Y100562D02*
G54D11*
D03*
X1376350Y100562D02*
G54D11*
D03*
X1348650Y100562D02*
G54D11*
D03*
X1320950Y100562D02*
G54D11*
D03*
X1293250Y100562D02*
G54D11*
D03*
X1265550Y100562D02*
G54D11*
D03*
X1237850Y100562D02*
G54D11*
D03*
X1210150Y100562D02*
G54D11*
D03*
X1182450Y100562D02*
G54D11*
D03*
X1154750Y100562D02*
G54D11*
D03*
X1071562Y114300D02*
G54D19*
D03*
X1541463Y114300D02*
G54D19*
D03*
X1485900Y669925D02*
G54D20*
D03*
X1778794Y593725D02*
G54D18*
D03*
G36*
X1497300Y607725D02*
X1525300Y607725D01*
X1525300Y579725D01*
X1497300Y579725D01*
X1497300Y607725D01*
G37*
G36*
X1471900Y607725D02*
X1499900Y607725D01*
X1499900Y579725D01*
X1471900Y579725D01*
X1471900Y607725D01*
G37*
X515938Y1050925D02*
G54D10*
D03*
X617537Y1050925D02*
G54D10*
D03*
X828662Y128975D02*
G54D13*
D03*
X800963Y128975D02*
G54D13*
D03*
X773262Y128975D02*
G54D13*
D03*
X745562Y128975D02*
G54D13*
D03*
X717862Y128975D02*
G54D13*
D03*
X690162Y128975D02*
G54D13*
D03*
X662462Y128975D02*
G54D13*
D03*
X634762Y128975D02*
G54D13*
D03*
X607062Y128975D02*
G54D13*
D03*
G36*
X844913Y140975D02*
X868913Y140975D01*
X868913Y116975D01*
X844913Y116975D01*
X844913Y140975D01*
G37*
X842950Y100562D02*
G54D13*
D03*
X815250Y100562D02*
G54D13*
D03*
X787550Y100562D02*
G54D13*
D03*
X759850Y100562D02*
G54D13*
D03*
X732150Y100562D02*
G54D13*
D03*
X704450Y100562D02*
G54D13*
D03*
X676750Y100562D02*
G54D13*
D03*
X649050Y100562D02*
G54D13*
D03*
X621350Y100562D02*
G54D13*
D03*
X538162Y114300D02*
G54D19*
D03*
X927100Y114300D02*
G54D19*
D03*
X150812Y144462D02*
G54D10*
D03*
X150812Y117475D02*
G54D10*
D03*
X215900Y144462D02*
G54D10*
D03*
X215900Y117475D02*
G54D10*
D03*
X2074862Y171450D02*
G54D21*
D03*
X2074862Y112712D02*
G54D21*
D03*
X2074862Y58738D02*
G54D21*
D03*
X1500188Y1316038D02*
G54D22*
D03*
X909638Y1317625D02*
G54D10*
D03*
X1772444Y1756569D02*
G54D10*
D03*
X1874044Y1756569D02*
G54D10*
D03*
X1772444Y1793081D02*
G54D10*
D03*
X1874044Y1793081D02*
G54D10*
D03*
X1613694Y1756569D02*
G54D10*
D03*
X1715294Y1756569D02*
G54D10*
D03*
X1251744Y1724819D02*
G54D10*
D03*
X1353344Y1724819D02*
G54D10*
D03*
X1912144Y1959769D02*
G54D10*
D03*
X2013744Y1959769D02*
G54D10*
D03*
X1734344Y1959769D02*
G54D10*
D03*
X1835944Y1959769D02*
G54D10*
D03*
X1531144Y1959769D02*
G54D10*
D03*
X1632744Y1959769D02*
G54D10*
D03*
X1329531Y1961356D02*
G54D10*
D03*
X1431131Y1961356D02*
G54D10*
D03*
X1901825Y1850231D02*
G54D10*
D03*
X2028825Y1850231D02*
G54D10*
D03*
X1901825Y1888331D02*
G54D10*
D03*
X2028825Y1888331D02*
G54D10*
D03*
X1901825Y1928019D02*
G54D10*
D03*
X2028825Y1928019D02*
G54D10*
D03*
X1722438Y1845469D02*
G54D10*
D03*
X1849438Y1845469D02*
G54D10*
D03*
X1722438Y1883569D02*
G54D10*
D03*
X1849438Y1883569D02*
G54D10*
D03*
X1722437Y1921669D02*
G54D10*
D03*
X1849438Y1921669D02*
G54D10*
D03*
X1520825Y1858169D02*
G54D10*
D03*
X1647825Y1858169D02*
G54D10*
D03*
X1520825Y1896269D02*
G54D10*
D03*
X1647825Y1896269D02*
G54D10*
D03*
X1520825Y1928019D02*
G54D10*
D03*
X1647825Y1928019D02*
G54D10*
D03*
X1317625Y1858169D02*
G54D10*
D03*
X1444625Y1858169D02*
G54D10*
D03*
X1087438Y1770856D02*
G54D10*
D03*
X1214437Y1770856D02*
G54D10*
D03*
X873125Y1808956D02*
G54D10*
D03*
X1000125Y1808956D02*
G54D10*
D03*
X1093788Y1866106D02*
G54D10*
D03*
X1220788Y1866106D02*
G54D10*
D03*
X1443038Y1890712D02*
G54D10*
D03*
X1443038Y1922462D02*
G54D10*
D03*
X1292225Y1922462D02*
G54D10*
D03*
X1292225Y1890712D02*
G54D10*
D03*
X712787Y1848644D02*
G54D10*
D03*
X839788Y1848644D02*
G54D10*
D03*
X712787Y1808956D02*
G54D10*
D03*
X839788Y1808956D02*
G54D10*
D03*
X712787Y1770856D02*
G54D10*
D03*
X839788Y1770856D02*
G54D10*
D03*
X936625Y1961356D02*
G54D10*
D03*
X1038225Y1961356D02*
G54D10*
D03*
X731837Y1961356D02*
G54D10*
D03*
X833438Y1961356D02*
G54D10*
D03*
X536575Y1961356D02*
G54D10*
D03*
X638175Y1961356D02*
G54D10*
D03*
X522288Y1930400D02*
G54D10*
D03*
X649287Y1930400D02*
G54D10*
D03*
X325438Y1959768D02*
G54D10*
D03*
X427038Y1959768D02*
G54D10*
D03*
X884238Y1770856D02*
G54D10*
D03*
X985837Y1770856D02*
G54D10*
D03*
X158750Y558800D02*
G54D17*
D03*
X77787Y558800D02*
G54D17*
D03*
X158750Y347662D02*
G54D17*
D03*
X77788Y347662D02*
G54D17*
D03*
X596900Y514350D02*
G54D17*
D03*
X469900Y514350D02*
G54D17*
D03*
X1054100Y1923256D02*
G54D17*
D03*
X1264100Y1923256D02*
G54D17*
D03*
X1316038Y1890712D02*
G54D10*
D03*
X1417638Y1890712D02*
G54D10*
D03*
X1316038Y1922462D02*
G54D10*
D03*
X1417638Y1922462D02*
G54D10*
D03*
X1955800Y212725D02*
G54D23*
D03*
X1746250Y187325D02*
G54D23*
D03*
X1479550Y187325D02*
G54D23*
D03*
X1189037Y187325D02*
G54D23*
D03*
X655638Y187325D02*
G54D23*
D03*
X287337Y187325D02*
G54D23*
D03*
X59608Y65677D02*
G54D23*
D03*
X2172572Y65677D02*
G54D23*
D03*
G36*
X630350Y861900D02*
X652350Y861900D01*
X652350Y839900D01*
X630350Y839900D01*
X630350Y861900D01*
G37*
G36*
X630350Y830150D02*
X652350Y830150D01*
X652350Y808150D01*
X630350Y808150D01*
X630350Y830150D01*
G37*
X768350Y850900D02*
G54D10*
D03*
X768350Y819150D02*
G54D10*
D03*
X341312Y144462D02*
G54D10*
D03*
X341312Y117475D02*
G54D10*
D03*
X406400Y144462D02*
G54D10*
D03*
X406400Y117475D02*
G54D10*
D03*
G54D24*
G75*
G01X128190Y95250D02*
G03X106758Y95250I-10716J0D01*
G01*
G54D24*
G75*
G01X106758Y82550D02*
G03X128190Y82550I10716J0D01*
G01*
G54D24*
X106758Y82550D02*
X106758Y95250D01*
G54D24*
X128190Y95250D02*
X128190Y82550D01*
G54D24*
G75*
G01X261540Y95250D02*
G03X240108Y95250I-10716J0D01*
G01*
G54D24*
G75*
G01X240109Y82550D02*
G03X261541Y82550I10716J0D01*
G01*
G54D24*
X240109Y82550D02*
X240108Y95250D01*
G54D24*
X261540Y95250D02*
X261541Y82550D01*
G54D24*
G75*
G01X190500Y68660D02*
G03X190500Y90092I0J10716D01*
G01*
G54D24*
G75*
G01X177798Y90092D02*
G03X177798Y68660I0J-10716D01*
G01*
G54D24*
X177798Y90092D02*
X190500Y90092D01*
G54D24*
X190500Y68660D02*
X177798Y68660D01*
G54D24*
G75*
G01X317897Y95250D02*
G03X296465Y95250I-10716J0D01*
G01*
G54D24*
G75*
G01X296465Y82550D02*
G03X317897Y82550I10716J0D01*
G01*
G54D24*
X296465Y82550D02*
X296465Y95250D01*
G54D24*
X317897Y95250D02*
X317897Y82550D01*
G54D24*
G75*
G01X451247Y95250D02*
G03X429815Y95250I-10716J0D01*
G01*
G54D24*
G75*
G01X429814Y82550D02*
G03X451246Y82550I10716J0D01*
G01*
G54D24*
X429815Y82550D02*
X429815Y95250D01*
G54D24*
X451247Y95250D02*
X451247Y82550D01*
G54D24*
G75*
G01X380206Y68660D02*
G03X380206Y90092I0J10716D01*
G01*
G54D24*
G75*
G01X367505Y90092D02*
G03X367505Y68660I0J-10716D01*
G01*
G54D24*
X367505Y90092D02*
X380206Y90092D01*
G54D24*
X380206Y68660D02*
X367505Y68660D01*
G54D24*
G75*
G01X317897Y95250D02*
G03X296465Y95250I-10716J0D01*
G01*
G54D24*
G75*
G01X296465Y82550D02*
G03X317897Y82550I10716J0D01*
G01*
G54D24*
X296465Y82550D02*
X296465Y95250D01*
G54D24*
X317897Y95250D02*
X317897Y82550D01*
G54D24*
G75*
G01X451247Y95250D02*
G03X429815Y95250I-10716J0D01*
G01*
G54D24*
G75*
G01X429814Y82550D02*
G03X451246Y82550I10716J0D01*
G01*
G54D24*
X429815Y82550D02*
X429815Y95250D01*
G54D24*
X451247Y95250D02*
X451247Y82550D01*
G54D24*
G75*
G01X380206Y68660D02*
G03X380206Y90092I0J10716D01*
G01*
G54D24*
G75*
G01X367505Y90092D02*
G03X367505Y68660I0J-10716D01*
G01*
G54D24*
X367505Y90092D02*
X380206Y90092D01*
G54D24*
X380206Y68660D02*
X367505Y68660D01*
X1681162Y138112D02*
G54D25*
D03*
X1706562Y138112D02*
G54D25*
D03*
X1727200Y138112D02*
G54D25*
D03*
X1746250Y138112D02*
G54D25*
D03*
X1727200Y114300D02*
G54D25*
D03*
X1746250Y114300D02*
G54D25*
D03*
X1681162Y114300D02*
G54D25*
D03*
X1700212Y114300D02*
G54D25*
D03*
G54D24*
G75*
G01X1658540Y95250D02*
G03X1637108Y95250I-10716J0D01*
G01*
G54D24*
G75*
G01X1637109Y82550D02*
G03X1658541Y82550I10716J0D01*
G01*
G54D24*
X1637109Y82550D02*
X1637108Y95250D01*
G54D24*
X1658540Y95250D02*
X1658541Y82550D01*
G54D24*
G75*
G01X1791890Y95250D02*
G03X1770458Y95250I-10716J0D01*
G01*
G54D24*
G75*
G01X1770457Y82550D02*
G03X1791889Y82550I10716J0D01*
G01*
G54D24*
X1770458Y82550D02*
X1770458Y95250D01*
G54D24*
X1791890Y95250D02*
X1791890Y82550D01*
G54D24*
G75*
G01X1720850Y68660D02*
G03X1720850Y90092I0J10716D01*
G01*
G54D24*
G75*
G01X1708148Y90092D02*
G03X1708148Y68660I0J-10716D01*
G01*
G54D24*
X1708148Y90092D02*
X1720850Y90092D01*
G54D24*
X1720850Y68660D02*
X1708148Y68660D01*
G54D24*
G75*
G01X1658540Y95250D02*
G03X1637108Y95250I-10716J0D01*
G01*
G54D24*
G75*
G01X1637109Y82550D02*
G03X1658541Y82550I10716J0D01*
G01*
G54D24*
X1637109Y82550D02*
X1637108Y95250D01*
G54D24*
X1658540Y95250D02*
X1658541Y82550D01*
G54D24*
G75*
G01X1791890Y95250D02*
G03X1770458Y95250I-10716J0D01*
G01*
G54D24*
G75*
G01X1770457Y82550D02*
G03X1791889Y82550I10716J0D01*
G01*
G54D24*
X1770458Y82550D02*
X1770458Y95250D01*
G54D24*
X1791890Y95250D02*
X1791890Y82550D01*
G54D24*
G75*
G01X1720850Y68660D02*
G03X1720850Y90092I0J10716D01*
G01*
G54D24*
G75*
G01X1708148Y90092D02*
G03X1708148Y68660I0J-10716D01*
G01*
G54D24*
X1708148Y90092D02*
X1720850Y90092D01*
G54D24*
X1720850Y68660D02*
X1708148Y68660D01*
X1871662Y138112D02*
G54D25*
D03*
X1897062Y138112D02*
G54D25*
D03*
X1917700Y138112D02*
G54D25*
D03*
X1936750Y138112D02*
G54D25*
D03*
X1917700Y114300D02*
G54D25*
D03*
X1936750Y114300D02*
G54D25*
D03*
X1871662Y114300D02*
G54D25*
D03*
X1890712Y114300D02*
G54D25*
D03*
G54D24*
G75*
G01X1849040Y95250D02*
G03X1827608Y95250I-10716J0D01*
G01*
G54D24*
G75*
G01X1827608Y82550D02*
G03X1849040Y82550I10716J0D01*
G01*
G54D24*
X1827608Y82550D02*
X1827608Y95250D01*
G54D24*
X1849040Y95250D02*
X1849040Y82550D01*
G54D24*
G75*
G01X1982390Y95250D02*
G03X1960958Y95250I-10716J0D01*
G01*
G54D24*
G75*
G01X1960957Y82550D02*
G03X1982389Y82550I10716J0D01*
G01*
G54D24*
X1960958Y82550D02*
X1960958Y95250D01*
G54D24*
X1982390Y95250D02*
X1982390Y82550D01*
G54D24*
G75*
G01X1911350Y68660D02*
G03X1911350Y90092I0J10716D01*
G01*
G54D24*
G75*
G01X1898648Y90092D02*
G03X1898648Y68660I0J-10716D01*
G01*
G54D24*
X1898648Y90092D02*
X1911350Y90092D01*
G54D24*
X1911350Y68660D02*
X1898648Y68660D01*
G54D24*
G75*
G01X1849040Y95250D02*
G03X1827608Y95250I-10716J0D01*
G01*
G54D24*
G75*
G01X1827608Y82550D02*
G03X1849040Y82550I10716J0D01*
G01*
G54D24*
X1827608Y82550D02*
X1827608Y95250D01*
G54D24*
X1849040Y95250D02*
X1849040Y82550D01*
G54D24*
G75*
G01X1982390Y95250D02*
G03X1960958Y95250I-10716J0D01*
G01*
G54D24*
G75*
G01X1960957Y82550D02*
G03X1982389Y82550I10716J0D01*
G01*
G54D24*
X1960958Y82550D02*
X1960958Y95250D01*
G54D24*
X1982390Y95250D02*
X1982390Y82550D01*
G54D24*
G75*
G01X1911350Y68660D02*
G03X1911350Y90092I0J10716D01*
G01*
G54D24*
G75*
G01X1898648Y90092D02*
G03X1898648Y68660I0J-10716D01*
G01*
G54D24*
X1898648Y90092D02*
X1911350Y90092D01*
G54D24*
X1911350Y68660D02*
X1898648Y68660D01*
G54D26*
G75*
G01X496887Y199232D02*
G03X496887Y175418I0J-11907D01*
G01*
G54D26*
G75*
G01X546893Y175418D02*
G03X546893Y199232I0J11907D01*
G01*
G54D26*
X496887Y199232D02*
X546893Y199232D01*
G54D26*
X546893Y175418D02*
X496887Y175418D01*
G54D26*
G75*
G01X892174Y199232D02*
G03X892174Y175418I0J-11907D01*
G01*
G54D26*
G75*
G01X942181Y175418D02*
G03X942181Y199232I0J11907D01*
G01*
G54D26*
X892174Y199232D02*
X942181Y199232D01*
G54D26*
X942181Y175418D02*
X892174Y175418D01*
G54D26*
G75*
G01X1597024Y199232D02*
G03X1597024Y175418I0J-11907D01*
G01*
G54D26*
G75*
G01X1647031Y175418D02*
G03X1647031Y199232I0J11907D01*
G01*
G54D26*
X1597024Y199232D02*
X1647031Y199232D01*
G54D26*
X1647031Y175418D02*
X1597024Y175418D01*
M02*
